<svg xmlns="http://www.w3.org/2000/svg" width="560" height="28" baseProfile="tiny" viewBox="0 -2 560 28"><path fill="#FFF" d="M0-2h559v25H0z"/><path fill="#CBD7DC" d="M4 2h552v1H4V2zm0 3h552v1H4V5zm0 3h552v1H4V8zm0 3h552v1H4v-1zm0 3h552v1H4v-1zm0 3h552v1H4v-1z"/><path fill="#FFF" d="M10-1h4v23h-4V-1zm10 0h4v23h-4V-1zm10 0h4v23h-4V-1zm10 0h4v23h-4V-1zm10 0h4v23h-4V-1zm10 0h4v23h-4V-1zm10 0h4v23h-4V-1zm10 0h4v23h-4V-1zm10 0h4v23h-4V-1zm10 0h4v23h-4V-1zm10 0h4v23h-4V-1zm10 0h4v23h-4V-1zm10 0h4v23h-4V-1zm10 0h4v23h-4V-1zm10 0h4v23h-4V-1zm10 0h4v23h-4V-1zm10 0h4v23h-4V-1zm10 0h4v23h-4V-1zm10 0h4v23h-4V-1zm10 0h4v23h-4V-1zm10 0h4v23h-4V-1zm10 0h4v23h-4V-1zm10 0h4v23h-4V-1zm10 0h4v23h-4V-1zm10 0h4v23h-4V-1zm10 0h4v23h-4V-1zm10 0h4v23h-4V-1zm10 0h4v23h-4V-1zm10 0h4v23h-4V-1zm10 0h4v23h-4V-1zm10 0h4v23h-4V-1zm10 0h4v23h-4V-1zm10 0h4v23h-4V-1zm10 0h4v23h-4V-1zm10 0h4v23h-4V-1zm10 0h4v23h-4V-1zm10 0h4v23h-4V-1zm10 0h4v23h-4V-1zm10 0h4v23h-4V-1zm10 0h4v23h-4V-1zm10 0h4v23h-4V-1zm10 0h4v23h-4V-1zm10 0h4v23h-4V-1zm10 0h4v23h-4V-1zm10 0h4v23h-4V-1zm10 0h4v23h-4V-1zm10 0h4v23h-4V-1zm10 0h4v23h-4V-1zm10 0h4v23h-4V-1zm10 0h4v23h-4V-1zm10 0h4v23h-4V-1zm10 0h4v23h-4V-1zm10 0h4v23h-4V-1zm10 0h4v23h-4V-1z"/><path fill="#CBD7DC" d="M10-2h1v25h-1V-2zm10 0h1v25h-1V-2zm10 0h1v25h-1V-2zm10 0h1v25h-1V-2zm10 0h1v25h-1V-2zm10 0h1v25h-1V-2zm10 0h1v25h-1V-2zm10 0h1v25h-1V-2zm10 0h1v25h-1V-2zm10 0h1v25h-1V-2zm10 0h1v25h-1V-2zm10 0h1v25h-1V-2zm10 0h1v25h-1V-2zm10 0h1v25h-1V-2zm10 0h1v25h-1V-2zm10 0h1v25h-1V-2zm10 0h1v25h-1V-2zm10 0h1v25h-1V-2zm10 0h1v25h-1V-2zm10 0h1v25h-1V-2zm10 0h1v25h-1V-2zm10 0h1v25h-1V-2zm10 0h1v25h-1V-2zm10 0h1v25h-1V-2zm10 0h1v25h-1V-2zm10 0h1v25h-1V-2zm10 0h1v25h-1V-2zm10 0h1v25h-1V-2zm10 0h1v25h-1V-2zm10 0h1v25h-1V-2zm10 0h1v25h-1V-2zm10 0h1v25h-1V-2zm10 0h1v25h-1V-2zm10 0h1v25h-1V-2zm10 0h1v25h-1V-2zm10 0h1v25h-1V-2zm10 0h1v25h-1V-2zm10 0h1v25h-1V-2zm10 0h1v25h-1V-2zm10 0h1v25h-1V-2zm10 0h1v25h-1V-2zm10 0h1v25h-1V-2zm10 0h1v25h-1V-2zm10 0h1v25h-1V-2zm10 0h1v25h-1V-2zm10 0h1v25h-1V-2zm10 0h1v25h-1V-2zm10 0h1v25h-1V-2zm10 0h1v25h-1V-2zm10 0h1v25h-1V-2zm10 0h1v25h-1V-2zm10 0h1v25h-1V-2zm10 0h1v25h-1V-2zm10 0h1v25h-1V-2zM0-2v25h560V-2H0zm559 24H1V-1h558v23z"/></svg>