<svg width="72" height="78" viewBox="0 0 72 78" fill="none" xmlns="http://www.w3.org/2000/svg">
<path opacity="0.2" d="M0.136165 38.8965C1.85021 19.0894 19.2965 4.42212 39.1035 6.13616C58.9106 7.8502 73.5779 25.2965 71.8638 45.1035C70.1498 64.9106 52.7035 79.5779 32.8965 77.8638C13.0894 76.1498 -1.57788 58.7035 0.136165 38.8965Z" fill="url(#paint0_linear)"/>
<path d="M32.2884 54.9642C31.6288 54.8979 31.1096 54.2627 31.1759 53.603L32.3363 42.0596C32.4026 41.3999 33.0378 40.8808 33.6974 40.9471L50.1881 42.6047C50.8477 42.671 51.3669 43.3062 51.3006 43.9658L50.1402 55.5093C50.0739 56.1689 49.4387 56.6881 48.7791 56.6218L32.2884 54.9642ZM33.7739 52.6149L47.791 54.0239L48.7027 44.954L34.6856 43.545L33.7739 52.6149Z" fill="#0D2436"/>
<path d="M41.0311 50.8461C40.3714 50.7798 39.8523 50.1446 39.9186 49.485L40.0844 47.8359C40.1507 47.1763 40.7859 46.6571 41.4455 46.7234C42.1051 46.7897 42.6243 47.4249 42.558 48.0846L42.3922 49.7336C42.3259 50.3933 41.6907 50.9124 41.0311 50.8461Z" fill="#0D2436"/>
<path d="M36.7469 43.7525C36.0873 43.6861 35.5681 43.051 35.6344 42.3913L35.9659 39.0932C36.3058 35.7126 39.391 33.191 42.7716 33.5308C46.1522 33.8706 48.6738 36.9558 48.334 40.3364L48.0024 43.6345C47.9361 44.2942 47.301 44.8133 46.6413 44.747L36.7469 43.7525ZM42.5229 36.0044C40.4616 35.7972 38.6468 37.2805 38.4396 39.3418L38.2323 41.4032L45.6532 42.1491L45.8604 40.0878C46.0676 38.0264 44.5843 36.2116 42.5229 36.0044Z" fill="#0D2436"/>
<path d="M11.7541 59.5631C8.3735 59.2233 5.85188 56.1381 6.19169 52.7575L9.84675 16.3955C9.91305 15.7359 10.5482 15.2167 11.2079 15.283L16.1551 15.7803C16.8147 15.8466 17.3339 16.4818 17.2676 17.1414L13.1152 58.4506C13.0489 59.1102 12.4137 59.6294 11.7541 59.5631ZM8.6653 53.0061C8.53269 54.3254 9.15045 55.6368 10.2385 56.4124L10.7825 56.8003L14.6696 18.1296L12.196 17.8809L8.6653 53.0061Z" fill="#0D2436"/>
<path d="M11.7541 59.5632C11.0945 59.4969 10.5753 58.8617 10.6416 58.2021C10.7079 57.5425 11.3431 57.0233 12.0027 57.0896C12.6624 57.1559 13.3386 57.0573 13.9489 56.7855L14.2128 56.6455L14.4768 56.5054L14.749 56.2829C15.5657 55.6155 15.9867 54.7416 16.0861 53.7522L19.0781 23.9865C19.1444 23.3268 19.7796 22.8077 20.4392 22.874L42.7017 25.1118L44.5178 21.13C44.7324 20.6519 45.2603 20.3718 45.755 20.4215L65.7088 22.4272C66.2035 22.477 66.665 22.8565 66.7802 23.3678L67.932 28.4808C67.9237 28.5632 67.9154 28.6457 67.8989 28.8106L64.4096 63.5235C64.3433 64.1831 63.7081 64.7023 63.0484 64.636L11.7624 59.4808L11.7541 59.5632ZM18.5597 54.0008C18.5349 54.2482 18.4192 54.5697 18.3944 54.8171C18.3695 55.0644 18.2622 55.3035 18.1549 55.5426L18.1466 55.625L18.1383 55.7075C18.1217 55.8724 18.031 55.9465 17.932 56.1032C17.8329 56.2598 17.8164 56.4247 17.7256 56.4989C17.6266 56.6555 17.5276 56.8121 17.4285 56.9687L16.9499 57.5869L61.9695 62.1122L65.3096 28.8835L64.3882 24.7931L46.4134 22.9863L44.5973 26.9681C44.3826 27.4462 43.8547 27.7263 43.36 27.6766L21.4274 25.4719L18.5597 54.0008Z" fill="#0D2436"/>
<path d="M11.7541 59.5632C11.0945 59.4969 10.5753 58.8617 10.6416 58.2021L16.2858 2.05126C16.3521 1.39163 16.9873 0.87247 17.6469 0.938775L63.9033 5.5884C64.563 5.65471 65.0821 6.2899 65.0158 6.94953L63.3582 23.4402C63.2919 24.0998 62.6567 24.619 61.9971 24.5527L46.3309 22.978L44.5973 26.968C44.3826 27.4462 43.8547 27.7263 43.36 27.6765L21.4274 25.4719L18.5597 54.0008C18.5349 54.2482 18.4192 54.5697 18.3944 54.817C18.3695 55.0644 18.2622 55.3035 18.1549 55.5425L18.1466 55.625L18.1383 55.7075C18.1217 55.8724 18.031 55.9465 17.932 56.1031C17.8329 56.2598 17.8164 56.4247 17.7256 56.4988C17.6266 56.6555 17.5276 56.8121 17.4285 56.9687C16.1577 58.8398 13.9803 59.787 11.7541 59.5632ZM13.2478 57.1315L14.2128 56.6455L14.4768 56.5054L14.749 56.2829C15.5657 55.6154 15.9867 54.7416 16.0861 53.7522L19.0781 23.9864C19.1444 23.3268 19.7796 22.8077 20.4392 22.874L42.7017 25.1118L44.5178 21.13C44.7324 20.6518 45.2603 20.3717 45.755 20.4215L61.0089 21.9548L62.4179 7.93769L18.6351 3.5367L13.2478 57.1315Z" fill="#0D2436"/>
<path d="M27.2842 21.0634C23.9036 20.7235 21.3819 17.6383 21.7218 14.2577C22.0616 10.8771 25.1468 8.35553 28.5274 8.69534C31.908 9.03515 34.4296 12.1204 34.0898 15.501C33.75 18.8815 30.7472 21.4115 27.2842 21.0634ZM28.2787 11.1689C26.2174 10.9617 24.4026 12.445 24.1954 14.5064C23.9882 16.5677 25.4715 18.3826 27.5328 18.5898C29.5941 18.797 31.409 17.3136 31.6162 15.2523C31.8234 13.191 30.3401 11.3761 28.2787 11.1689Z" fill="#0D2436"/>
<path d="M41.388 14.1526C40.7283 14.0863 40.2092 13.4511 40.2755 12.7915C40.3418 12.1319 40.977 11.6127 41.6366 11.679L56.4782 13.1709C57.1379 13.2372 57.657 13.8724 57.5907 14.532C57.5244 15.1916 56.8892 15.7108 56.2296 15.6445L41.388 14.1526Z" fill="#0D2436"/>
<defs>
<linearGradient id="paint0_linear" x1="60.2263" y1="69.5266" x2="10.168" y2="14.8745" gradientUnits="userSpaceOnUse">
<stop stop-color="#10A8A6"/>
<stop offset="1" stop-color="#B9E6E6"/>
</linearGradient>
</defs>
</svg>
