<svg width="14" height="18" viewBox="0 0 14 18" fill="none" xmlns="http://www.w3.org/2000/svg">
<path d="M9.88571 7.90655C10.3543 7.48392 10.7294 6.96228 10.9857 6.37694C11.242 5.79159 11.3736 5.15621 11.3714 4.51381C11.3714 3.31668 10.9109 2.16857 10.0911 1.32207C9.27126 0.475561 8.15937 0 7 0C5.84063 0 4.72874 0.475561 3.90894 1.32207C3.08914 2.16857 2.62858 3.31668 2.62858 4.51381C2.62642 5.15621 2.75796 5.79159 3.01429 6.37694C3.27062 6.96228 3.64575 7.48392 4.11429 7.90655C2.88669 8.47608 1.84497 9.40034 1.1149 10.5678C0.384835 11.7352 -0.00237721 13.0959 1.09808e-05 14.4855C1.09808e-05 15.3411 0.428582 16.5212 2.48572 17.2882C3.93909 17.7938 5.46679 18.0334 7 17.9963C12.1714 17.9963 14 16.1081 14 14.4855C14.0024 13.0959 13.6152 11.7352 12.8851 10.5678C12.155 9.40034 11.1133 8.47608 9.88571 7.90655ZM7 1.77012C7.52553 1.77012 8.03926 1.93104 8.47623 2.23252C8.91319 2.534 9.25376 2.96251 9.45488 3.46385C9.65599 3.96519 9.70861 4.51686 9.60608 5.04908C9.50356 5.58131 9.25049 6.07019 8.87888 6.4539C8.50727 6.83761 8.03382 7.09892 7.51838 7.20479C7.00295 7.31065 6.46869 7.25632 5.98316 7.04866C5.49763 6.84099 5.08264 6.48933 4.79067 6.03813C4.4987 5.58693 4.34286 5.05647 4.34286 4.51381C4.34286 3.78614 4.62281 3.08827 5.12112 2.57373C5.61943 2.05919 6.29528 1.77012 7 1.77012ZM7 16.2261C3.88572 16.2261 1.71429 15.3116 1.71429 14.4855C1.71429 13.038 2.27118 11.6498 3.26244 10.6262C4.2537 9.60265 5.59814 9.02763 7 9.02763C8.40186 9.02763 9.7463 9.60265 10.7376 10.6262C11.7288 11.6498 12.2857 13.038 12.2857 14.4855C12.2857 15.3116 10.1143 16.2261 7 16.2261Z" fill="#05ADA3"/>
</svg>
