<svg width="56" height="60" viewBox="0 0 56 60" fill="none" xmlns="http://www.w3.org/2000/svg">
<g clip-path="url(#clip0)">
<path opacity="0.2" d="M0.105906 29.5861C1.43905 14.1806 15.0084 2.77276 30.4139 4.10591C45.8193 5.43905 57.2272 19.0084 55.8941 34.4139C54.561 49.8194 40.9916 61.2272 25.5861 59.8941C10.1806 58.561 -1.22724 44.9916 0.105906 29.5861Z" fill="url(#paint0_linear)"/>
<path d="M50.6 43.8001L48.6 25.8001L49.4 16.7001L47.4 14.2001L47.2 12.8001L44 10.3001L38 3.00009V2.90009H37.9L37 1.70009L33.2 1.40009L32.1 0.600094L28.2 1.10009L16 9.37525e-05C15.6 9.37525e-05 14.2 -0.0999063 13 0.700094C12.1 1.20009 11.5 2.00009 11.2 3.00009C10.8 3.00009 9.40001 3.30009 8.40001 4.20009C7.30001 5.20009 6.90001 6.50009 7.10001 8.10009L9.10001 26.3001L7.60001 44.3001C7.40001 46.0001 8.20001 49.2001 11.9 49.5001H12C12.6 51.0001 14 52.6001 16.8 52.3001L28.9 51.0001L30.5 51.1001C30.6 50.4001 30.4 49.6001 30 49.1001L12 47.6001C9.40001 47.4001 9.50001 45.1001 9.50001 44.6001L12.9 4.50009C13.1 2.30009 14.9 2.00009 15.6 2.00009C15.7 2.00009 15.8 2.00009 15.8 2.00009L35.9 3.70009L35.2 11.6001C35.2 11.8001 35.1 13.0001 35.8 14.4001C36.5 15.8001 37.8 16.5001 39.5 16.7001L47.3 17.4001L44.7 47.6001C44.5 50.1001 42.3 50.1001 41.8 50.0001L37.7 49.7001C37.7 50.3001 37.7 51.0001 37.7 51.7001L41.7 52.0001C41.9 52.0001 41.9 52.0001 42.1 52.0001C43.5 52.0001 45.8 51.3001 46.6 48.9001C46.7 48.9001 46.8 48.9001 46.9 48.8001C48.5 48.7001 51 47.2001 50.6 43.8001ZM18.7 50.2001L16.5 50.4001C15.5 50.6001 14.8 50.2001 14.4 49.8001L18.7 50.2001ZM9.90001 16.1001L9.00001 8.00009C8.80001 6.00009 10.1 5.30009 10.9 5.10009L9.90001 16.1001ZM39.7 14.7001C37.2 14.5001 37.2 12.2001 37.3 11.7001L37.8 5.80009L45.5 15.2001L39.7 14.7001ZM46.9 46.9001L47.8 36.1001L48.7 44.1001C48.9 45.9001 47.7 46.7001 46.9 46.9001Z" fill="#0D2436"/>
<path d="M42 19.6002L17.9 17.5002C17.3 17.4002 16.8 17.9002 16.8 18.4002C16.7 19.0002 17.2 19.5002 17.7 19.5002L41.8 21.6002H41.9C42.4 21.6002 42.9 21.2002 43 20.6002C43.1 20.2002 42.6 19.6002 42 19.6002Z" fill="#0D2436"/>
<path d="M41.3 26.2003L17.2 24.1003C16.7 24.0003 16.2 24.5003 16.1 25.0003C16 25.6003 16.5 26.1003 17 26.1003L41.1 28.2003H41.2C41.7 28.2003 42.2 27.8003 42.3 27.2003C42.3 26.8003 41.9 26.3003 41.3 26.2003Z" fill="#0D2436"/>
<path d="M28.8 31.6999L16.6 30.6999C16 30.5999 15.5 31.0999 15.5 31.5999C15.4 32.1999 15.9 32.6999 16.4 32.6999L26.8 33.5999C27.5 32.6999 28 32.2999 28.8 31.6999Z" fill="#0D2436"/>
<path d="M16.1 37.1003C15.5 37.0003 15 37.5003 15 38.0003C14.9 38.6003 15.4 39.1003 15.9 39.1003L24.7 39.9003C24.6 39.3003 24.7 38.6003 24.8 37.8003L16.1 37.1003Z" fill="#0D2436"/>
<path d="M34 32C38.3 32 41.9 35.5 41.9 39.9C41.9 42.8 40.3 45.4 37.9 46.8V53.2C37.9 53.5 37.6 53.6 37.4 53.5L34 51.7L30.7 53.4C30.4 53.6 30.2 53.4 30.2 53.1V46.7C27.8 45.4 26.2 42.8 26.2 39.8C26.2 35.5 29.7 32 34 32ZM37.2 47C36.2 47.5 35.2 47.7 34 47.7C32.9 47.7 31.8 47.4 30.8 47V52.5L33.8 51C33.9 50.9 34.1 50.9 34.1 51L37.1 52.5V47H37.2ZM34 32.7C30.1 32.7 26.9 35.9 26.9 39.8C26.9 43.8 30.1 47 34 47C38 47 41.2 43.8 41.2 39.8C41.2 35.9 38 32.7 34 32.7Z" fill="#0D2436"/>
<path d="M30.5 54.8223C30.4 54.8223 30.2 54.8223 30.1 54.7223C29.8 54.6223 29.7 54.3223 29.7 53.9223V47C27.2 45.5 25.7 42.8 25.7 39.9C25.7 35.3 29.4 31.5 34 31.5C38.6 31.5 42.4 35.3 42.4 39.9C42.4 42.8 40.9 45.5 38.4 47V54.0223C38.4 54.3223 38.3 54.6223 38 54.7223C37.8 54.9223 37.4 54.9223 37.2 54.7223L34 53.1223L30.9 54.7223C30.8 54.7223 30.7 54.8223 30.5 54.8223ZM34.5 51.4223L36.7 52.5223V47.8C35 48.4 33.1 48.4 31.4 47.8V52.5223L33.7 51.3223C33.9 51.2223 34.2 51.2223 34.5 51.4223ZM34 33.2C30.3 33.2 27.4 36.2 27.4 39.8C27.4 43.5 30.4 46.5 34 46.5C37.7 46.5 40.7 43.5 40.7 39.8C40.7 36.2 37.7 33.2 34 33.2Z" fill="#0D2436"/>
<path d="M33 42.6001C32.8 42.6001 32.5 42.5001 32.3 42.3001L30.6 40.7001C30.2 40.3001 30.2 39.7001 30.6 39.3001C31 38.9001 31.6 38.9001 32 39.3001L33 40.3001L36.1 37.4001C36.5 37.0001 37.1 37.0001 37.5 37.4001C37.9 37.8001 37.9 38.4001 37.5 38.8001L33.7 42.3001C33.5 42.5001 33.3 42.6001 33 42.6001Z" fill="#0D2436"/>
</g>
<defs>
<linearGradient id="paint0_linear" x1="46.8427" y1="53.4096" x2="7.90846" y2="10.9024" gradientUnits="userSpaceOnUse">
<stop stop-color="#10A8A6"/>
<stop offset="1" stop-color="#B9E6E6"/>
</linearGradient>
<clipPath id="clip0">
<rect width="56" height="60" fill="white"/>
</clipPath>
</defs>
</svg>
