<svg xmlns="http://www.w3.org/2000/svg" width="202.167" height="281.265"><g><path fill="#2C3E50" d="M114.88 115.22l-4.62-11.08 6.8-2.45 5.74 11.62-4.9-.9z"/><path fill="#2C3E50" d="M99.47 111.7l4.76-9.24 8 1.54-5.27 11.22-2.38-3.86z"/><circle cx="110.692" cy="90.382" r="16.923" fill="#D39629"/><circle cx="110.692" cy="90.382" r="14.225" fill="#F2B033"/><g><path fill="#885A24" d="M118.28 82.53c0 4.08-3.37 7.4-7.52 7.4-4.14 0-7.5-3.32-7.5-7.4"/><path fill="#885A24" d="M108.47 100.06c0-1.22 1-2.2 2.25-2.2s2.25.98 2.25 2.2"/><path fill="#885A24" d="M112.22 99.25h-2.96s.57-2.26.57-6c0-3-.57-6-.57-6h2.96s-.52 2.42-.52 6c0 3.72.52 6 .52 6z"/><g><g><path fill="#885A24" d="M116.95 87.88c.2-.55.4-1.1.6-1.65 1.4-.85 2.07.07 2.05 2.78-.52.58-1.4.95-2.08 1.24-.65.26-1.35.43-2.02.6-1.2.34-2.42.72-3.3 1.65-1.36 1.42.36 3.75 2.03 2.53.1-.07 0-.23-.1-.16-.75-.36-1.5-.73-2.23-1.1.03-.56.25-1.03.66-1.4.48-.5 1.25-.77 1.9-1 .77-.3 1.6-.48 2.4-.72 1.17-.35 3.62-1.28 3.65-2.82.1-3.27-4.85-2.04-3.7.14.05.1.2 0 .15-.1z"/></g></g><g><g><path fill="#885A24" d="M104.8 87.97c1.23-2.32-3.78-3.2-3.7-.6.03 1.82 1.87 2.66 3.38 3.2.75.26 1.55.44 2.32.67.6.18 1.17.43 1.7.73.4.22.7.52.95.9.7 1.25.03 1.92-1.98 2-.1-.07-.2.08-.1.15 1.66 1.22 3.4-1.1 2.03-2.54-.88-.92-2.1-1.3-3.3-1.63-.68-.2-1.35-.38-2.02-.62-.8-.28-1.44-.68-2.08-1.22.45-1.02.9-2.04 1.36-3.06.9.2 1.33.84 1.3 1.94-.06.1.1.2.15.1z"/></g></g></g></g><path fill="#F2B033" stroke="#885A24" stroke-width=".5" stroke-miterlimit="10" d="M146.9 113s.98-1.2 2.87-1.2c7.1 0 10.35-1.34 12.77-6.15 3.76-7.44-.8-11.9-.8-16.5 0-3.38 2.33-7.07 2.33-7.07l-7.17-8.3c-4.02 3.58-6.68 2.66-10 0-3.33 2.66-5.98 3.58-10 0l-7.18 8.3s2.34 3.7 2.34 7.07c0 4.6-4.56 9.06-.8 16.5 2.42 4.8 5.66 6.15 12.76 6.15 1.9 0 2.88 1.2 2.88 1.2z"/><path fill="#885A24" d="M156.34 102.37h-1s-1 0-1-1v-2.5c0-.27-.2-.5-.48-.5-.28 0-.5.23-.5.5v4.3c0 .6-2 2.2-6.46 2.2s-6.46-1.6-6.46-2.2v-4.3c0-.27-.23-.5-.5-.5s-.5.23-.5.5v2.5c0 1-1 1-1 1h-1s-1 0-1-1v-4.24c0-2.92 2.9-5.4 6.9-6.33 0 0 1.24 1.1 3.56 1.1 2.32 0 3.55-1.1 3.55-1.1 4.02.94 6.9 3.4 6.9 6.33v4.24c0 1-1 1-1 1zm-9.47-11.98c-2.47 0-4.47-2.02-4.47-4.5s2-4.5 4.47-4.5c2.48 0 4.48 2.02 4.48 4.5s-2 4.5-4.47 4.5z"/><path stroke="#885A24" stroke-width=".5" stroke-miterlimit="10" d="M146.9 113s.98-1.2 2.87-1.2c7.1 0 10.35-1.34 12.77-6.15 3.76-7.44-.8-11.9-.8-16.5 0-3.38 2.33-7.07 2.33-7.07l-7.17-8.3c-4.02 3.58-6.68 2.66-10 0" opacity=".15" enable-background="new"/><circle cx="183.75" cy="90.455" r="16.747" fill="#D39629"/><circle cx="183.75" cy="90.455" r="14.078" fill="#F2B033"/><g><g><path fill="#885A24" d="M180.7 82.97h-3.33v13.3h3.33v-13.3zm4.16 3.33h-3.33v9.98h3.33V86.3zm4.16 3.32h-3.33v6.66H189v-6.66zm.83 3.33v3.33h3.33v-3.33h-3.33zm-14.14-9.98h-.26v14.97h17.47v-.27h-17.2v-14.7z"/></g></g><g><g><path fill="#fff" d="M23.77 10.73c0-4.72-3.78-8.4-10.48-8.4S.93 6.02.93 10.74c0 2.68 1.98 5.06 4.7 6.63.62.36.83 2.68-2.64 4.3 0-.02 4.8 1.13 7.9-2.72.78.1 1.58.16 2.4.16 6.7 0 10.47-3.64 10.47-8.37zm3.87 9.35c2.72-1.57 4.63-3.95 4.63-6.63 0-4.04-4.1-7.8-9.46-8.8 4.85 7.54 1.23 15.92-9.65 15.45 1.77 1.23 3.94 2.07 6.83 2.07.82 0 1.6-.22 2.38-.33 3.12 3.85 8.2 1.97 8.2 1.97-3.46-1.6-3.54-3.36-2.92-3.72z"/></g></g><g><g><path fill="#3F454C" d="M69 97.06v1.64c.18-.02.32-.07.4-.13.15-.1.22-.3.22-.57 0-.2-.07-.6-.2-.73-.1-.07-.23-.14-.42-.2zm-.96-1.76c0 .2.08.36.23.48.08.06.2.12.38.18V94.7c-.2 0-.36.05-.46.16-.1.1-.16.25-.16.44zm9.4-16.04h7.28c.57 0 1.04-.47 1.04-1.06 0-.58-.47-1.06-1.04-1.06h-7.27c-.58 0-1.04.48-1.04 1.06 0 .6.47 1.06 1.05 1.06zm-.97 12.7h7.27c.58 0 1.04-.47 1.04-1.05s-.46-1.05-1.04-1.05h-7.27c-.57 0-1.03.47-1.03 1.06s.46 1.07 1.03 1.07zm2.08-10.58c0 .58.47 1.06 1.04 1.06h7.26c.57 0 1.04-.48 1.04-1.06 0-.6-.47-1.06-1.04-1.06H79.6c-.58 0-1.05.47-1.05 1.06zm8.3 2.12H79.6c-.58 0-1.05.47-1.05 1.05 0 .6.47 1.07 1.04 1.07h7.26c.57 0 1.04-.48 1.04-1.07 0-.58-.47-1.05-1.04-1.05zm-3.1 10.58c0-.58-.47-1.06-1.05-1.06h-7.27c-.57 0-1.03.48-1.03 1.06 0 .6.46 1.06 1.03 1.06h7.27c.58 0 1.04-.47 1.04-1.06zm3.1-6.35c0-.58-.46-1.06-1.03-1.06h-7.27c-.57 0-1.04.48-1.04 1.06 0 .58.48 1.06 1.05 1.06h7.27c.57 0 1.04-.48 1.04-1.07zM84.8 99.38H77.5c-.56 0-1.03.47-1.03 1.05 0 .6.47 1.07 1.04 1.07h7.28c.58 0 1.04-.48 1.04-1.07 0-.58-.46-1.05-1.04-1.05zm0-3.18H77.5c-.56 0-1.03.47-1.03 1.06s.47 1.06 1.04 1.06h7.28c.58 0 1.04-.48 1.04-1.06s-.46-1.06-1.04-1.06zm6.6 3.28l-3.1-5.5c-.3-.5-.92-.68-1.42-.4-.5.3-.67.95-.38 1.46l3.12 5.5c.28.5.92.68 1.4.38.5-.3.68-.93.4-1.44zM68.66 91.9c-2.58 0-4.67 2.13-4.67 4.76s2.1 4.77 4.67 4.77c2.58 0 4.68-2.14 4.68-4.77 0-2.63-2.1-4.76-4.68-4.76zm1.2 7.3c-.27.18-.5.28-.85.3v.93h-.6v-.9c-.47-.07-.56-.17-.8-.33-.4-.27-.6-.35-.6-1.02h.97c.03.3.08.1.14.22.1.16.28.27.55.3v-1.76l-.3-.1c-.44-.13-.76-.3-.94-.55s-.27-.55-.27-.9c0-.2.04-.42.1-.6.08-.18.18-.34.3-.47.18-.17.36-.3.57-.36.13-.04.08-.07.32-.1v-.83H69v.85c.38.02.55.12.77.28.4.26.5.35.52.93h-.72c0-.2-.05-.03-.1-.13-.1-.18-.25-.27-.48-.3v1.4c.56.2.84.37 1.03.52.32.24.48.83.48 1.3 0 .6-.2 1.04-.65 1.3z"/></g></g><g><g><path fill="#0076A4" d="M37.38 25.12h18v-1h-18v1zM56.94 5.26l-2.72-2.72c-.6-.6-1.57-.6-2.18 0l-1.68 1.7 4.9 4.88 1.67-1.68c.6-.6.6-1.58 0-2.18zm-2.18 4.4l-4.92-4.93-11.5 11.5 4.9 4.93 11.52-11.5zm-14.2 6.57l9.27-9.27.54.54-9.27 9.27-.54-.54zm1.08 1.08l9.27-9.26.55.54-9.27 9.27-.54-.54zM52 9.13l.52.54-9.26 9.27-.54-.54L52 9.1zm-9.4 12.42l-4.65-4.66-1.45 4.08L38.53 23l4.08-1.46zm-6.35.2l-.87 2.37 2.37-.86-1.5-1.5z"/></g></g><g><g><path fill="#0076A4" d="M65.25 28.65l-2.3-2.2 7.55-7.83 2.3 2.22z" opacity=".8" enable-background="new"/><path fill="#0076A4" d="M63.23 31.98c-.8.92-2.22 1-3.13.2l-.02-.03c-.92-.82-1-2.22-.2-3.13l4.7-5.26c.8-.92 2.2-1 3.13-.18h.03c.9.83 1 2.23.18 3.15l-4.67 5.25z"/><circle cx="78.405" cy="12.736" r="9.686" fill="none" stroke="#0076A4" stroke-width="2" stroke-miterlimit="10"/><path fill="#0076A4" d="M72.54 17c-.3-4.8 2.45-9.03 6.55-9.73.83-.14 1.66-.13 2.46.02-1.28-.83-2.76-1.2-4.26-.94-3.63.62-5.96 4.62-5.23 8.93.1.6.27 1.16.47 1.7z" opacity=".3" enable-background="new"/></g><path fill="#0076A4" d="M76.84 15.73l1.87-1.87L86.87 22 85 23.9z"/><path fill="#0076A4" d="M85.3 23.56l-1.86-1.87L94.6 10.52l1.86 1.86z"/></g><g><g><path fill="#0076A4" d="M114.8 8.14h-1.98v1.97h1.98V8.15zm0-4.94h-1.98v3.95h1.98V3.2zm-10.87 0h-1.98v3.95h1.98V3.2zm0 4.94h-1.98v1.97h1.98V8.15zm11.8-1.98l.06 4.94h-3.97V6.16h-6.9v4.94h-3.97V6.16H98v23.71h20.75V6.18h-3.03zm-11.8 20.7h-2.96v-2.98h2.96v2.97zm0-3.96h-2.96v-2.97h2.96v2.97zm0-3.96h-2.96v-2.96h2.96v2.96zm3.95 7.9h-2.96V23.9h2.96v2.97zm0-3.94h-2.96v-2.97h2.96v2.97zm0-3.96h-2.96v-2.96h2.96v2.96zm3.95 7.9h-2.96V23.9h2.96v2.97zm0-3.94h-2.96v-2.97h2.96v2.97zm0-3.96h-2.96v-2.96h2.96v2.96zm3.96 7.9h-2.98V23.9h2.97v2.97zm0-3.94h-2.98v-2.97h2.97v2.97zm0-3.96h-2.98v-2.96h2.97v2.96z"/></g></g><g><path fill="#414042" d="M81.4 35.9h10.5l4.58 4.03v16.45c0 1.65-1.08 3-2.4 3H81.4c-1.32 0-2.4-1.35-2.4-3V38.9c0-1.65 1.08-3 2.4-3z"/><path fill="#414042" d="M87.74 35.47h4.17c.13 0 .22.04.3.1l4.57 4.03c.1.1.16.23.15.36V56.4c0 .9-.3 1.76-.8 2.38-.52.64-1.25 1.04-2.05 1.04h-6.33v-.87h6.33c.53 0 1-.27 1.37-.72.37-.47.6-1.12.6-1.84V40.12l-4.3-3.8h-4v-.86zm-6.33 0h6.34v.87H81.4c-.52 0-1 .27-1.36.7-.37.5-.6 1.14-.6 1.86v17.5c0 .7.23 1.36.6 1.83.36.45.84.72 1.37.72h6.34v.87H81.4c-.8 0-1.52-.4-2.03-1.04-.5-.62-.8-1.47-.8-2.4V38.9c0-.93.3-1.77.8-2.4.5-.64 1.23-1.03 2.04-1.03z"/><path fill="#fff" d="M69.2 39.3h10.52c.1 0 .2.04.3.1v.02l4.56 4.02c.1.1.15.22.14.35V60.2c0 .93-.3 1.78-.8 2.4-.52.64-1.24 1.04-2.04 1.04H69.2c-.8 0-1.5-.4-2.03-1.05-.5-.6-.8-1.45-.8-2.38V42.74c0-.93.3-1.78.8-2.4.52-.64 1.24-1.04 2.04-1.04z"/><path fill="#414042" d="M94 39.58l1.37-.05-1.38-1.2v-1.18l2.77 2.45c.1.08.14.2.15.32 0 .23-.18.43-.42.44l-2.5.1v-.88zm-1.4-2.48l.55 2.5.84-.02v.87l-1.16.04c-.22 0-.42-.13-.47-.35L91.5 36c-.04-.12 0-.27.1-.4.15-.17.42-.18.6-.02l1.8 1.58v1.16l-1.4-1.22z"/><path fill="#414042" d="M69.2 39.74h10.52l4.57 4.02v16.46c0 1.65-1.1 3-2.42 3H69.2c-1.3 0-2.4-1.35-2.4-3V42.74c0-1.65 1.1-3 2.4-3z"/><path fill="#fff" d="M79.72 39.74l.88 4.15 3.7-.13z"/><path fill="#fff" d="M91.92 35.9l.88 4.16 3.68-.13z"/></g><path fill="#414042" d="M112.9 35.2h6.6c1.18 0 2.28.77 2.37 1.76v.26c0 .02 0 .05 0 .07l-2.03 14.92c-.16 1.15-1.06 2.1-2.35 2.1H115c-1.3 0-2.2-.96-2.36-2.1l-2.1-14.93-.02-.06v-.3c.12-1 1.2-1.75 2.37-1.75zm1.44 20.74h3.8c.93 0 1.7.78 1.7 1.72v3.8c0 .93-.77 1.7-1.7 1.7h-3.8c-.94 0-1.7-.77-1.7-1.7v-3.8c0-.94.76-1.7 1.7-1.7z"/><path fill="#414042" d="M103.73 34.54l.13.2 2 3.05 1.97 2.92v.02l.05.07h-.04V64.2c.3 3.6-2.23 4.25-3.97 4.28h-.14v-4.33h3.6v-.6h-3.6v-.48h1.16V42.27c0-.37-.14-.7-.35-.95-.2-.23-.5-.38-.82-.4v-.4c.42 0 .8.2 1.08.5.18.2.3.42.38.67.2-.57.7-.98 1.28-.98h.9l-1.78-2.68-1.14-1.73h-.72v-1.76zm-4.1 6.2l1.94-2.95 2-3.06.15-.22v1.79H103l-1.14 1.74-1.77 2.68h.85c.58 0 1.08.4 1.28.97.08-.26.2-.5.38-.67.28-.3.68-.5 1.1-.5h.03v.4h-.02c-.32 0-.6.15-.83.4-.22.24-.35.57-.35.93v20.79h1.2v.48h-3.6v.6h3.6v4.33c-1.77 0-4.2-.94-4.14-4.28V40.74h.05z"/><path fill="#414042" d="M49.17 35.2c4.06 0 7.75 1.64 10.4 4.3 2.68 2.67 4.33 6.35 4.33 10.42s-1.65 7.75-4.32 10.42c-2.66 2.66-6.34 4.3-10.4 4.3v-7.77l3.17.87c.18.06.36.1.55.1 1.12.05 2.08-.83 2.13-1.95l.15-3.4 1.8-2.73c.1-.15.2-.32.28-.5.4-1.07-.14-2.25-1.2-2.65l-3.17-1.2-2.1-2.6c-.1-.14-.22-.26-.36-.38-.38-.3-.83-.44-1.27-.44v-6.8zm0 29.45c-4.07 0-7.76-1.65-10.42-4.3-2.66-2.68-4.3-6.36-4.3-10.42 0-4.08 1.64-7.76 4.3-10.43 2.67-2.66 6.35-4.3 10.4-4.3h.02V42c-.6 0-1.2.26-1.6.77l-2.13 2.66-3.17 1.2c-.14.05-.28.1-.4.2-.95.62-1.2 1.88-.6 2.83l1.88 2.83.15 3.4c0 .13.04.28.08.43.3 1.1 1.42 1.74 2.5 1.44l3.28-.9v7.78z"/><path fill="#414142" d="M18.7 69.1s.9-1.1 2.58-1.1c6.36 0 9.26-1.18 11.43-5.5 3.37-6.66-.7-10.64-.7-14.77 0-3.03 2.08-6.33 2.08-6.33l-6.42-7.44c-3.6 3.22-5.98 2.4-8.96 0-2.98 2.4-5.35 3.22-8.96 0L3.32 41.4s2.1 3.3 2.1 6.33c0 4.13-4.1 8.1-.73 14.77C6.85 66.82 9.75 68 16.1 68c1.7 0 2.58 1.1 2.58 1.1z"/><path fill="#818181" d="M27.16 59.56h-.9s-.88 0-.88-.9v-2.22c0-.25-.2-.45-.45-.45-.24 0-.44.2-.44.44l-.02 3.84c0 .54-1.8 1.97-5.78 1.97-4 0-5.78-1.43-5.78-1.97v-3.84c0-.25-.2-.45-.45-.45s-.45.2-.45.44v2.23c0 .9-.9.9-.9.9h-.88s-.9 0-.9-.9v-3.8c0-2.6 2.58-4.82 6.18-5.66 0 0 1.1 1 3.18 1s3.18-1 3.18-1c3.6.85 6.17 3.06 6.17 5.67v3.8c0 .9-.9.9-.9.9zm-8.48-10.7c-2.2 0-4-1.82-4-4.04 0-2.22 1.8-4.02 4-4.02s4 1.8 4 4.02c0 2.23-1.8 4.03-4 4.03z"/><path fill="#fff" d="M18.7 69.1s.9-1.1 2.58-1.1c6.36 0 9.26-1.18 11.43-5.5 3.37-6.66-.7-10.64-.7-14.77 0-3.03 2.08-6.33 2.08-6.33l-6.42-7.44c-3.6 3.22-5.98 2.4-8.96 0" opacity=".15" enable-background="new"/><g fill="#2694CD"><circle cx="131.932" cy="17.589" r="4.575"/><path d="M125 32.25v-3.6c0-3.83 3.2-6.93 7-6.93 3.82 0 7 3.1 7 6.92v3.6"/><ellipse cx="145.513" cy="6.662" rx="9.758" ry="6.453"/><path d="M141.44 10.66s-.3 4.14-1.53 5.37c4.24-2.1 5.6-4 5.6-5.37"/></g><path fill="#2694CD" d="M144.77 66.2h-17.8c-1.1 0-2-.88-2-1.97V40.38c0-1.1.9-1.97 2-1.97h4.93v2.07h-3.96c-.55 0-.98.44-.98.98v21.8c0 .54.44.98.98.98h15.83c.56 0 1-.44 1-1V41.46c0-.54-.44-.98-1-.98h-3.95V38.4h4.94c1.1 0 1.98.9 1.98 1.98v23.85c0 1.1-.88 1.97-1.97 1.97zM131.9 46.4h10.9v.98h-10.9v-1zm0 2.95h10.9v1h-10.9v-1zm0 2.97h10.9v.98h-10.9v-.98zm0 2.96h10.9v1h-10.9v-1zm10.9 6.9h-10.9v-.97h10.9v1zm-10.9-3.94h10.9v1h-10.9v-1zm-2.96-11.87h1v1h-1v-1zm0 2.96h1v1h-1v-1zm0 2.97h1v.98h-1v-.98zm0 2.96h1v1h-1v-1zm1 6.9h-1v-.97h1v.97zm-1-3.94h1v1h-1v-1zm12.86-16.7c.55 0 1 .44 1 .98 0 .55 0 1.92 0 1.92h-13.86s0-1.37 0-1.92c0-.54.44-1 1-1h2.96s0-1.4 0-3c0-1.66 1.3-3.06 2.96-3.06s3 1.47 3 3.07c0 1.74-.03 3-.03 3h2.97zm-5.94-3.1c-.54 0-.98.43-.98.97s.44.98 1 .98.98-.44.98-1c0-.53-.45-.97-1-.97z"/><g fill="#fff"><circle cx="162.932" cy="17.589" r="4.575"/><path d="M156 32.25v-3.6c0-3.83 3.2-6.93 7-6.93 3.82 0 7 3.1 7 6.92v3.6"/><ellipse cx="176.513" cy="6.662" rx="9.758" ry="6.453"/><path d="M172.44 10.66s-.3 4.14-1.53 5.37c4.24-2.1 5.6-4 5.6-5.37"/></g><path fill="#fff" d="M170.77 66.2h-17.8c-1.1 0-2-.88-2-1.97V40.38c0-1.1.9-1.97 2-1.97h4.93v2.07h-3.95c-.55 0-1 .44-1 .98v21.8c0 .54.45.98 1 .98h15.83c.55 0 1-.44 1-1V41.46c0-.54-.45-.98-1-.98h-3.96V38.4h4.95c1.1 0 1.97.9 1.97 1.98v23.85c0 1.1-.88 1.97-1.97 1.97zM157.9 46.4h10.9v.98h-10.9v-1zm0 2.95h10.9v1h-10.9v-1zm0 2.97h10.9v.98h-10.9v-.98zm0 2.96h10.9v1h-10.9v-1zm10.9 6.9h-10.9v-.97h10.9v1zm-10.9-3.94h10.9v1h-10.9v-1zm-2.96-11.87h1v1h-1v-1zm0 2.96h1v1h-1v-1zm0 2.97h1v.98h-1v-.98zm0 2.96h1v1h-1v-1zm1 6.9h-1v-.97h1v.97zm-1-3.94h1v1h-1v-1zm12.86-16.7c.55 0 1 .44 1 .98 0 .55 0 1.92 0 1.92h-13.86s0-1.37 0-1.92c0-.54.44-1 1-1h2.96s0-1.4 0-3c0-1.66 1.3-3.06 2.96-3.06s3 1.47 3 3.07c0 1.74-.03 3-.03 3h2.97zm-5.94-3.1c-.54 0-.98.43-.98.97s.44.98 1 .98.98-.44.98-1c0-.53-.45-.97-1-.97z"/><g><g><path fill="#2694CD" d="M197.84 54.27c-.96-1.68-3.1-2.25-4.78-1.28-1.1.62-1.7 1.77-1.73 2.96l-.85.83-8.1 4.67-.37 1.36 2.74.74.14-1.87 1.87 1 .58-.63.1-1.62 1.95.62.65-.4.02-1.66 1.6.57 1.74-.36c.98.45 2.15.43 3.16-.15 1.68-.97 2.25-3.1 1.28-4.78zm-1.94 2.13c-.48.28-1.1.1-1.37-.36-.27-.48-.1-1.1.37-1.37.48-.28 1.1-.1 1.36.36.28.48.12 1.1-.36 1.37z"/></g></g><path fill="#2694CD" d="M1.2 102.33l-1.2-.6 13.55-27.68 1.2.58z"/><path fill="#2694CD" d="M14.73 128.82l-1.2.58L0 101.7l1.2-.58z"/><path fill="#B1B0B1" d="M17.2 102.33l-1.2-.6 13.55-27.68 1.2.6z"/><path fill="#B1B0B1" d="M30.74 128.8l-1.2.6L16 101.7l1.2-.6z"/><path fill="#2694CD" d="M33 74.63l1.2-.58 13.55 27.7-1.2.58z"/><path fill="#2694CD" d="M46.55 101.12l1.2.6-13.56 27.7-1.2-.6z"/><path fill="#B1B0B1" d="M48 74.64l1.18-.6 13.58 27.7-1.2.58z"/><path fill="#B1B0B1" d="M61.54 101.12l1.2.58-13.55 27.7-1.2-.6z"/><g fill="#0076A4"><g><path d="M20.75 146.15c0 .27.14.5.34.65.1.1.56.18.56.25v-1.74c0 .02-.53.1-.67.24-.15.15-.25.35-.25.6z"/><path d="M22 148.55v2.26c0-.03.48-.1.6-.17.2-.15.33-.42.33-.8 0-.27-.13-.8-.32-.98-.1-.1-.6-.2-.6-.3z"/><path d="M21.6 141.5c-3.6 0-6.53 2.9-6.53 6.5 0 3.62 2.92 6.54 6.53 6.54s6.52-2.92 6.52-6.53c0-3.6-2.92-6.5-6.52-6.5zm1.63 10c-.37.23-1.23.37-1.23.4v1.35h-1v-1.33c0-.07-.66-.14-.98-.35-.56-.38-.72-.32-.7-1.32h1.32c.05 0 .32.07.4.22.13.22-.04.3.96.35v-2.43l-.6-.13c-.63-.2-1.18-.44-1.44-.77s-.44-.73-.44-1.2c0-.3.03-.58.13-.83.1-.26.23-.47.4-.65.24-.23.36-.4.64-.48.17-.06.3-.1.3-.13v-.94h1v.97c0 .04.8.35 1.12.58.55.36.74.46.76 1.46h-.98c-.03-1-.12-.24-.2-.38-.1-.23-.7-.55-.7-.57v1.9c1 .27 1.2.5 1.48.72.44.35.67 1.15.67 1.78 0 .82-.3 1.43-.92 1.8z"/></g><path d="M4.97 166.23h8.7v1.45h-8.7v-1.45z"/><path d="M15.12 158.98l4.62-2.9h6.75l-4.13 2.9v8.7h-7.25v-8.7z"/><path d="M4.97 163.33h8.7v1.44h-8.7v-1.44z"/><path d="M4.97 160.43h8.7v1.45h-8.7v-1.45z"/><path d="M23.82 166.23h8.7l4.3-2.94v1.53l-4.3 2.85h-8.7v-1.45z"/><path d="M23.82 163.33h8.7l4.3-2.95v1.54l-4.3 2.86h-8.7v-1.45z"/><path d="M23.82 160.43h8.7l4.3-2.94V159l-4.3 2.86h-8.7v-1.45z"/><path d="M24 158.98h8.47l4.35-2.94h-8.34L24 158.98z"/><path d="M5.15 158.98h8.34l4.34-2.94h-8.2l-4.5 2.94z"/></g><g><g><path fill="#1E8CCC" d="M197.84 30.27c-.96-1.68-3.1-2.25-4.78-1.28-1.1.62-1.7 1.77-1.73 2.96l-.85.83-8.1 4.67-.37 1.36 2.74.74.14-1.87 1.87 1 .58-.63.1-1.62 1.95.62.65-.4.02-1.66 1.6.57 1.74-.36c.98.45 2.15.43 3.16-.15 1.68-.97 2.25-3.1 1.28-4.78zm-1.94 2.13c-.48.28-1.1.1-1.37-.36-.27-.48-.1-1.1.37-1.37.48-.28 1.1-.1 1.36.36.28.48.12 1.1-.36 1.37z"/></g></g><g><g><path fill="#7F909A" d="M62 160h-6v-6h-2v6h-6v2h6v6h2v-6h6z"/></g></g><g><g><path fill="#7F909A" d="M69 160h14v2H69z"/></g></g><g opacity=".3"><g><path fill="#7F909A" d="M104 160h-6v-6h-2v6h-6v2h6v6h2v-6h6z"/></g></g><g opacity=".3"><g><path fill="#7F909A" d="M111 160h14v2h-14z"/></g></g><path fill="none" stroke="#2693CC" stroke-width="1.3" stroke-miterlimit="10" d="M138.98 167.66l10.54-10.47 10.7 10.46"/><path fill="none" stroke="#2693CC" stroke-width="1.3" stroke-miterlimit="10" d="M138.98 152.66l10.54-10.47 10.7 10.46" opacity=".6" enable-background="new"/><path fill="#556474" d="M178.74 155.15c-.74.96-1.48 1.62-1.65 2.4-.23.8-.03 1.66.57 2.28.28.27.6.46.94.56.17.05.3-.03.43-.16l1.4-2.07s.27-.5-.25-.82c-.23-.13-.54-.22-.77-.33.23-.27 1.18-1.37 1.46-1.68m.26 9.85l11.73-11.73c.7-.7.7-1.83 0-2.52l-6.4-6.4c-.7-.7-1.82-.7-2.52 0l-11.8 11.8m15.3-8.37l2.02 2c.16.16.16.4 0 .57-.15.15-.4.15-.56 0l-2.02-2c-.15-.16-.15-.42 0-.57.16-.16.4-.16.56 0zm-14.56 8.94l10.73-10.74 7.6 7.6-10.65 10.67m.13-.13l-7.6-7.6 1.47-1.48-1.08-.24-2.92 2.92c-.7.7-.7 1.83 0 2.52l6.4 6.4c.7.7 1.82.7 2.52 0l8.53-8.53m-13.5 4.55c-.44-.43-.44-1.14 0-1.58.44-.44 1.15-.44 1.6 0 .43.43.43 1.14 0 1.58-.45.44-1.16.44-1.6 0z"/><path fill="#556474" d="M183.2 153.3c.12.24.27.45.46.64.27.28.6.47.96.58.15.05.33.02.45-.1l1.43-1.44c.13-.13.16-.3.1-.48-.12-.34-.3-.66-.57-.93-.62-.6-1.5-.8-2.26-.6-.8.18-1.34.86-2.3 1.6-1.9 1.48-2.73 2.57-2.73 2.57-.9.8 1.1 1.4 2.12.2 1.06-1.28 2.35-2.03 2.35-2.03z"/><path fill="#424242" d="M20.5 189.37s-2.88-2.94-6.86-2.94c-3.88 0-7.72 2.94-7.72 2.94l-2.16-.9v2.64c.34.13.6.44.6.82 0 .38-.26.7-.6.8l.63 1.8H2.5l.65-1.8c-.3-.14-.52-.44-.52-.8 0-.35.2-.64.5-.78v-2.93L0 186.9l13.8-6.2 12.66 6.28-5.96 2.4zm-7-1.45c4 0 5.94 2.1 5.94 2.1v4.4s-2.03 1.65-6.27 1.65-5.64-1.65-5.64-1.65v-4.4s1.96-2.1 5.96-2.1zm-.1 7.2c2.78 0 5.02-.56 5.02-1.25 0-.7-2.24-1.25-5-1.25s-5.03.56-5.03 1.25c0 .7 2.24 1.26 5 1.26z"/><g><g><path fill="#424242" d="M52.5 190.95h-7v.8h7v-.8zm0 2.63h-7v.85h7v-.85zm0 5.24h-7v.85h7v-.85zm-4.35-18.4v2.63H45.5v2.65h-2.6v16.6h12.25v-2.66h2.58v-2.57h2.65V180.4H48.15zm6.15 21.02H43.75V186.5H54.3v14.94zm2.6-2.6h-1.75V185.7h-8.8v-1.8h10.54v14.94zm2.63-2.63h-1.8v-13.15H49v-1.8h10.53v14.96zm-7.03-.02h-7v.85h7v-.85zm.02-7.9H45.5v.9h7.02v-.9z"/></g></g><path fill="#424242" d="M91.55 198.14c.2 0 .35.15.35.35 0 .18 0 1.04 0 1.04H78.58s0-.85 0-1.05c0-.2.16-.36.35-.36h1.17c.06-4.67 3.1-6.18 3.1-8.06 0-1.9-3.1-2.03-3.13-8.07h-1.14c-.2 0-.35-.15-.35-.34 0-.2 0-1.06 0-1.06H91.9s0 .86 0 1.06c0 .2-.16.35-.35.35h-1.07c-.03 6.05-3.14 6.18-3.14 8.08 0 1.88 3.05 3.4 3.1 8.06h1.1zm-5.18-8.06c0-1.9 3.1-2.03 3.14-8.07h-8.45c.03 6.06 3.13 6.17 3.13 8.08 0 1.83-3.05 3.37-3.1 8.06h.52c.13-.42.54-.92 1.26-1.3l.93-.46c.57-.3.93-.5 1.04-.6.12-.12.25-.36.4-.72.15.36.3.6.4.7.1.1.46.32 1.04.62l.93.47c.72.37 1.13.87 1.25 1.3h.63c-.06-4.7-3.1-6.24-3.1-8.07zm-.73-1.03c-.08.16-.15.47-.2.94-.02.13-.05.34-.1.62-.05-.28-.1-.5-.1-.63-.06-.48-.13-.8-.2-.95-.1-.17-.33-.47-.73-.9l-.87-.96c-.6-.65-.98-1.12-1.15-1.4 1.04.66 2.06 1 3.05 1 1 0 2-.34 3.06-1-.2.28-.57.74-1.17 1.4l-.87.95c-.4.44-.64.73-.72.9z"/><g><g><path fill="#424242" d="M115.2 183.73c.5 0 12.77 0 14.24 0s1.46-1.52.05-1.52c-1.4 0-9.28 0-9.84 0-.56 0-.84-.84-.84-.84s-.4-1.24-1.2-1.24c-.78 0-6.25 0-7.32 0-1.06 0-.78 1.24-.78 1.24s1.63 13.9 1.74 14.74c.1.85 1 1.1 1 1.1l1.9-12.3c.15-.9.77-1.14 1.05-1.17zm17.14.53h-16.68c-.5 0-.9.4-.9.9L113 196.3c0 .5.4.9.9.9h16.7c.48 0 .9-.4.9-.9l1.73-11.13c0-.5-.4-.9-.9-.9z"/></g></g><g><g><path fill="#0077A3" d="M152.5 195.9l-6.46-6.4-.04.04-.04-.03-6.46 6.4.6.6 5.9-5.84 5.9 5.84z"/></g></g><g><g><path fill="#0077A3" d="M168.5 190.1l-.6-.6-5.9 5.85-5.9-5.84-.6.6 6.46 6.4.04-.04.04.04z"/></g></g><g><g><path fill="#3E454C" d="M32.04 213.98c-1.95-3.33-6.3-4.47-9.67-2.55-2.24 1.27-3.5 3.56-3.53 5.92l-1.7 1.64-16.4 9.3-.74 2.72 5.53 1.45.3-3.7 3.77 1.96 1.18-1.24.18-3.22 3.96 1.22 1.3-.8.05-3.28 3.27 1.1 3.48-.7c2 .87 4.4.84 6.43-.32 3.4-1.93 4.55-6.2 2.6-9.52zm-3.93 4.24c-.96.55-2.2.23-2.76-.73-.55-.96-.22-2.17.74-2.73.97-.55 2.2-.22 2.77.73.56.96.23 2.17-.74 2.72z"/></g></g><g><g><path fill="#808080" d="M62.48 212.7l-2.2-2.2-4.77 4.8-4.78-4.8-2.2 2.2 4.8 4.8-4.8 4.8 2.2 2.2 4.8-4.8 4.77 4.8 2.18-2.2-4.78-4.8z"/></g></g><g><g><path fill="#fff" d="M172.7 240.67l2.9 1.75 9.08-13.94-2.9-1.76-9.07 13.95zm7.96-15.5V210.4h-20.48v26.34h12.93l7.56-11.6zm-17.07-9.8h13.65v1.63H163.6v-1.65zm0 4.93h13.65v1.64H163.6v-1.64zm0 4.94h13.65v1.64H163.6v-1.64zm19.1.1l2.9 1.74 1.57-5.52-4.47 3.77z"/></g></g><g><g><path fill="#2694CD" d="M138.02 240.67l2.9 1.75 9.07-13.94-2.9-1.76-9.08 13.95zm7.95-15.5V210.4H125.5v26.34h12.92l7.55-11.6zm-17.07-9.8h13.66v1.63H128.9v-1.65zm0 4.93h13.66v1.64H128.9v-1.64zm0 4.94h13.66v1.64H128.9v-1.64zm19.1.1l2.9 1.74 1.58-5.52-4.47 3.77z"/></g></g><path fill="#F2B035" d="M117.77 213.93c-.12-.17-.26-.33-.46-.46-13.54-8.5-29.88.8-39.88 12.15.4-1.1.75-2.2.98-3.36.37-1.88-2.44-2.66-2.82-.77-.78 3.9-2.8 7.4-3.34 11.4-.9 1.3 1.02 3.08 2.33 1.85 3.08-2.92 6.88-5.08 11.03-5.9 1.87-.37 1.1-3.27-.74-2.9-1.9.38-3.7 1.03-5.45 1.87 9.1-10.45 24.1-19.5 36.44-11.76 1.4.9 2.7-.97 1.92-2.13z"/><g><path fill="#1784B0" d="M198 174.9c0-.42-.33-.73-.73-.73h-17.25c-.4 0-.73.3-.73.74v22.16l-3.3 5.1H197.27c.4 0 .73-.34.73-.73V174.9zm-4.32 3.7v19.14c0 .4-.3.75-.7.75h-.72c-.4 0-.73-.36-.73-.76V178.6c0-.4.34-.75.73-.75h.72c.4 0 .7.34.7.74zm-3.6 0v19.14c0 .4-.33.75-.72.75h-.73c-.4 0-.7-.36-.7-.76V178.6c0-.4.3-.75.7-.75h.73c.4 0 .72.34.72.74zm-3.6 0v19.14c0 .4-.33.75-.72.75h-.7c-.42 0-.72-.36-.72-.76V178.6c0-.4.3-.75.72-.75h.7c.4 0 .72.34.72.74z"/></g><path fill="#BDC3C7" d="M89.04 147.16L81 142.9l-8.03 4.27 1.53-9.05-6.5-6.4 8.98-1.32 4.02-8.23 4.02 8.22 8.98 1.3-6.5 6.42 1.54 9.04z"/><path fill="#F39C12" d="M115.04 147.16L107 142.9l-8.03 4.27 1.53-9.05-6.5-6.4 8.98-1.32 4.02-8.23 4.02 8.22 8.98 1.3-6.5 6.42 1.54 9.04z"/><g fill="#0076A4"><path d="M5.4 272.74c.92-1.28 1.24-1.88 1.4-2.44-.15 0-.3.02-.46.02-2.95 0-5.34-2.43-5.34-5.42 0-3 2.3-5.43 5.24-5.43 2.96 0 5.26 2.43 5.26 5.43v.08c0 .07-.75 6.04-6.1 7.76"/><path d="M17.35 269.34c1.15-1.6 1.55-2.34 1.75-3.03-.2.03-.36.04-.56.04-3.67 0-6.63-3-6.63-6.72 0-3.72 2.84-6.74 6.5-6.74 3.68 0 6.53 3.02 6.53 6.74v.1c0 .1-.93 7.48-7.58 9.62"/><path d="M25.17 255.65c.13.56 1.08 1.12 1.14 1.7h17.93v-1.7H25.17z"/><path d="M25.84 264.15c-.16.57-1.18 1.15-1.4 1.7h19.8v-1.7h-18.4z"/><path d="M26.42 259.9c0 .03 0 .06 0 .1 0 .53-.02 1.07-.08 1.6h17.88v-1.7h-17.8z"/></g><g fill="#0076A4"><path d="M72.47 281.26v-28.18H50.05v28.18h22.42zm-20.72-26.48h19.02v24.8H51.75v-24.8zM53.98 261.65h14.56v1.7H53.98zM53.98 265.65h14.56v1.7H53.98zM53.98 257.65h14.56v1.7H53.98z"/></g></svg>