<svg xmlns="http://www.w3.org/2000/svg" xmlns:xlink="http://www.w3.org/1999/xlink" width="456" height="213" viewBox="0 0 456 213"><defs><style>.a{fill:none;}.b{fill:#f2f3ee;}.c{fill:#eeeff3;}.d{fill:#fff;}.e{fill:#dfd4cf;}.f{fill:#cce1f4;}.g{clip-path:url(#a);}.h{fill:#54a1d8;}.i{fill:url(#b);}.j{fill:url(#c);}.k{fill:url(#d);}.l{fill:#ccf4d7;}.m{fill:#e1ecf8;}.n{fill:#dbc2bf;}.o{clip-path:url(#e);}.p{fill:url(#f);}.q{fill:url(#g);}</style><clipPath id="a"><rect class="a" width="116.442" height="212.009"/></clipPath><linearGradient id="b" x1="-7.576" y1="4.794" x2="-7.562" y2="4.794" gradientUnits="objectBoundingBox"><stop offset="0" stop-color="#e0d8d2"/><stop offset="1" stop-color="#dbc2bf"/></linearGradient><linearGradient id="c" x1="-12.568" y1="7.531" x2="-12.547" y2="7.531" xlink:href="#b"/><linearGradient id="d" x1="-9.082" y1="8.641" x2="-9.065" y2="8.641" xlink:href="#b"/><clipPath id="e"><rect class="a" width="129.567" height="212.009"/></clipPath><linearGradient id="f" x1="-10.013" y1="5.556" x2="-9.999" y2="5.556" xlink:href="#b"/><linearGradient id="g" x1="-22.565" y1="20.783" x2="-22.534" y2="20.783" xlink:href="#b"/></defs><g transform="translate(0.004)"><path class="b" d="M356.637,42.828H337.649c-4.947,0-8.948-3.661-8.948-8.188V23.192c0-4.526,4-8.188,8.948-8.188h18.987c4.947,0,8.948,3.661,8.948,8.188V34.637C365.591,39.167,361.579,42.828,356.637,42.828Z" transform="translate(18.33 0.834)"/><path class="c" d="M334.5,83.707V65.687a19.371,19.371,0,0,0-19.371-19.373H175.29A18.8,18.8,0,0,0,156.5,65.1V81.142a18.727,18.727,0,0,1-18.714,18.741H89.33A20.229,20.229,0,0,0,69.1,120.11v89.473H396.182V99.881h-45.5A16.161,16.161,0,0,1,334.5,83.735v-.027Z" transform="translate(3.921 2.425)"/><path class="d" d="M319.9,207.333h-1.056V201.11H319.9Zm0-12.557h-1.056v-6.333H319.9Zm0-12.667h-1.056v-6.333H319.9Zm0-12.667h-1.056V163.11H319.9Zm0-12.667h-1.056v-6.333H319.9Zm0-12.667h-1.056v-6.333H319.9Zm0-12.667h-1.056V125.11H319.9Zm0-12.667h-1.056v-6.333H319.9Zm0-12.667h-1.056v-1.438h5.951v1.056h-4.9Zm55.562-.382h-6.333v-1.056h6.333Zm-12.667,0h-6.333v-1.056h6.333Zm-12.667,0h-6.333v-1.056h6.333Zm-12.667,0h-6.333v-1.056h6.333Z" transform="translate(17.796 5.667)"/><g transform="translate(84.69 95.79)"><rect class="d" width="1.35" height="1.583" transform="translate(303.158 71.367)"/><path class="d" d="M380.281,163.532h-6.33v-1.056h6.33Zm-12.66,0h-6.33v-1.056h6.33Zm-12.66,0h-6.33v-1.056h6.33Zm-12.661,0H335.97v-1.056H342.3Zm-12.659,0h-4.682a12.076,12.076,0,0,1-1.716-.122l.15-1.045a11.091,11.091,0,0,0,1.566.112h4.682Zm-12.358-2.817a11.785,11.785,0,0,1-3.616-5.446l1.006-.318a10.755,10.755,0,0,0,3.3,4.96Zm-3.1-11.88h-1.056V142.5h1.056Zm0-12.66h-1.056V132.01a10.91,10.91,0,0,0-.2-2.052l1.038-.2a11.976,11.976,0,0,1,.213,2.253Zm-190.127-7.6V127.52h5.742c.187,0,.374-.006.559-.016l.056,1.053c-.2.012-.406.017-.61.018Zm-6.33,0h-6.33V127.52h6.33Zm-12.66,0h-6.33V127.52h6.33Zm-12.66,0h-6.33V127.52H92.4Zm44.184-2.164-.609-.861A10.766,10.766,0,0,0,139.7,120.9l.974.406A11.822,11.822,0,0,1,136.584,126.412Zm173.644-1.762a10.741,10.741,0,0,0-5.1-3.064l.27-1.021A11.8,11.8,0,0,1,311,123.931Zm-11.267-3.421h-6.33v-1.056h6.33Zm-12.66,0h-2.39a11.831,11.831,0,0,1-4.041-.706l.359-.991a10.81,10.81,0,0,0,3.682.642h2.39Zm-11.724-4.543a11.753,11.753,0,0,1-2.441-6.064l1.049-.107a10.71,10.71,0,0,0,2.223,5.52Zm-132.993-1.792h-1.056v-6.33h1.056ZM273.13,104.239h-1.056v-1.557a10.756,10.756,0,0,0-.938-4.416l.963-.433a11.8,11.8,0,0,1,1.031,4.849Zm-131.539-1.985-1.055-.039A11.754,11.754,0,0,1,142.58,96l.872.6A10.705,10.705,0,0,0,141.591,102.253Zm125.7-8.539a10.708,10.708,0,0,0-5.669-1.809l.029-1.056a11.772,11.772,0,0,1,6.228,1.988ZM148.038,92.8l-.422-.967a11.781,11.781,0,0,1,4.749-.988h1.661V91.9h-1.661A10.729,10.729,0,0,0,148.038,92.8Zm107.271-.9h-6.33V90.845h6.33Zm-12.66,0h-6.33V90.845h6.33Zm-12.66,0h-6.33V90.845h6.33Zm-12.66,0H211V90.845h6.33Zm-12.66,0h-6.33V90.845h6.33Zm-12.66,0h-6.33V90.845h6.33Zm-12.66,0h-6.33V90.845h6.33Zm-12.66,0h-6.33V90.845h6.33Z" transform="translate(-79.826 -90.845)"/><rect class="d" width="1.351" height="1.583" transform="translate(0 36.407)"/></g><path class="e" d="M122.421,129.415c-6.037-5.226-12.033-10.5-18.066-15.728A69.084,69.084,0,0,1,128.1,86.435c6.037,5.226,12.033,10.5,18.066,15.728A69.4,69.4,0,0,0,122.421,129.415Z" transform="translate(5.82 4.722)"/><path class="d" d="M383.685,130.835v37.214a18.064,18.064,0,0,1-18.062,18.066h-21.9a18.064,18.064,0,0,1-18.066-18.062V130.835a18.064,18.064,0,0,1,18.062-18.066h21.9a18.064,18.064,0,0,1,18.066,18.062Z" transform="translate(18.175 6.117)"/><path class="d" d="M215.792,144.481h34.961a16.949,16.949,0,0,1,16.94,16.94v20.589a16.948,16.948,0,0,1-16.94,16.938H215.792a16.95,16.95,0,0,1-16.943-16.938V161.466a16.93,16.93,0,0,1,16.875-16.985h.068Z" transform="translate(11.092 7.878)"/><path class="f" d="M237.2,97.311h26.581a12.878,12.878,0,0,1,12.889,12.866h0v15.652a12.878,12.878,0,0,1-12.87,12.885H237.2a12.878,12.878,0,0,1-12.885-12.87V110.2A12.912,12.912,0,0,1,237.2,97.311Z" transform="translate(12.511 5.317)"/><path class="f" d="M311.732,67.87H343.86a15.594,15.594,0,0,1,15.588,15.588v18.877a15.594,15.594,0,0,1-15.588,15.59H311.732a15.6,15.6,0,0,1-15.583-15.59V83.458A15.594,15.594,0,0,1,311.732,67.87Z" transform="translate(16.518 3.705)"/><g transform="translate(154.838 0)"><g class="g"><g transform="translate(17.504 3.645)"><g transform="translate(15.621 158.446)"><path class="f" d="M239.758,157.5l13.475,48.652-28.207-.436-13.38-31.785-3.469,31.11-29.644.45,2.428-48.218,55.91-3.106Z" transform="translate(-178.007 -153.64)"/><path class="h" d="M253.261,206.708h-.008l-28.207-.436a.528.528,0,0,1-.478-.322l-12.594-29.918-3.244,29.1a.529.529,0,0,1-.516.469l-29.644.45a.52.52,0,0,1-.388-.16.532.532,0,0,1-.147-.393l2.427-48.218a.529.529,0,0,1,.5-.5l55.91-3.106a.5.5,0,0,1,.429.181l2.887,3.332a.524.524,0,0,1,.11.2l13.474,48.652a.527.527,0,0,1-.508.669Zm-27.854-1.485,27.157.42-13.256-47.859-2.64-3.046L181.493,157.8l-2.375,47.181,28.615-.436L211.15,173.9a.528.528,0,0,1,1.011-.147Z" transform="translate(-178.034 -153.667)"/></g><g transform="translate(1.622 63.775)"><path class="i" d="M172.915,75.341l-7.568,9.139s9.731,24.176,11.489,34.711,4.595,45.156,4.595,45.156l59.019-1.983L236.485,92,223.1,68.089l-7.028-3.511L205.805,83.261Z" transform="translate(-164.74 -63.88)"/><path class="h" d="M180.978,164.927l-.042-.5c-.027-.346-2.855-34.72-4.589-45.112-1.728-10.357-11.361-34.36-11.458-34.6l-.117-.29,7.979-9.635,32.817,7.9,10.323-18.774,7.627,3.81L237.037,91.88l.006.122,4,70.907ZM165.985,84.612c1.11,2.786,9.761,24.686,11.4,34.529,1.626,9.743,4.2,40.4,4.559,44.7l57.977-1.948L236,92.183,222.756,68.525l-6.428-3.212L206.105,83.9l-32.962-7.937Z" transform="translate(-164.772 -63.916)"/></g><path class="h" d="M228.339,141.811a.528.528,0,0,1-.473-.294l-8.289-16.793a.528.528,0,0,1,.947-.466l8.288,16.793a.528.528,0,0,1-.473.761Z" transform="translate(-160.109 3.151)"/><path class="h" d="M193.715,141.812a.528.528,0,0,1-.472-.762l8.335-16.794a.528.528,0,0,1,.946.469l-8.335,16.794A.528.528,0,0,1,193.715,141.812Z" transform="translate(-161.572 3.151)"/><g transform="translate(44.476 63.868)"><path class="j" d="M215.626,65.171s6.623-1.846,10.948.633,23.383,33.405,26.446,42.9c3.061,9.454.721,11.165-7.028,13.776-7.749,2.566-39.466,5.268-39.466,5.268l-.633-9.81,25.725-10.669Z" transform="translate(-205.342 -63.977)"/><path class="h" d="M206.063,128.352l-.692-10.723,25.6-10.619L214.956,64.846l.556-.155c.279-.078,6.886-1.877,11.354.684,4.387,2.515,23.591,33.6,26.686,43.2,3.19,9.852.515,11.783-7.361,14.436-7.721,2.558-38.292,5.183-39.59,5.294Zm.41-10.04.574,8.9c4.2-.37,31.757-2.86,38.809-5.2,7.327-2.468,9.708-3.8,6.691-13.111-2.958-9.175-22.061-40.236-26.206-42.61-3.367-1.93-8.32-1.081-9.979-.718l15.96,42.021Z" transform="translate(-205.371 -64.004)"/></g><g transform="translate(32.921 117.151)"><path class="d" d="M207.111,124.927,195.352,126.1l5.857-9.994,5.316-.99Z" transform="translate(-194.372 -114.485)"/><path class="h" d="M194.424,126.758l6.5-11.1,6.14-1.144.652,10.916Zm7.17-10.148-5.211,8.894,10.222-1.019-.519-8.711Z" transform="translate(-194.424 -114.518)"/></g><g transform="translate(16.829 49.057)"><path class="d" d="M179.9,55.181l12.21,25.21s10.948,1.666,14.732,0,1.667-12.2,1.667-12.2l-8.425-17.65Z" transform="translate(-179.139 -49.931)"/><path class="h" d="M201.341,81.691a70.77,70.77,0,0,1-9.269-.747L191.8,80.9,179.179,54.847l21.241-4.884,8.648,18.154c.225,1.121,2.085,11-1.972,12.788A15.789,15.789,0,0,1,201.341,81.691Zm-8.836-1.75c1.7.24,10.889,1.441,14.166,0,2.763-1.215,1.94-8.686,1.375-11.55L199.831,51.18l-19.126,4.4Z" transform="translate(-179.179 -49.963)"/></g><path class="d" d="M200.117,21.9c.991,2.026,8.515,16.83,7.254,26.914s-9.9,12.618-18.367,13.11c-10.272.633-14.972-11.889-14.972-11.889a5.715,5.715,0,0,1-5.451-3.782c-2.117-5.042,2.117-6.483,2.117-6.483s-3.784-6.979-.405-12.426c3.333-5.447,13.426-8.419,19.733-9.23C196.332,17.259,198.452,18.525,200.117,21.9Z" transform="translate(-162.972 -2.666)"/><g transform="translate(18.255 26.827)"><path class="h" d="M193.243,45.032c-.234,0-.386-.008-.42-.011a.527.527,0,0,1,.067-1.053c.043,0,4.443.246,4.667-2.4.071-1.059-.427-1.468-1.561-2.291a15.334,15.334,0,0,1-1.655-1.334c-3.1-3-2.274-5.4-1.032-6.887a6.6,6.6,0,0,1,5.7-2.121.526.526,0,0,1,.458.588.521.521,0,0,1-.589.459,5.551,5.551,0,0,0-4.77,1.768c-1.412,1.691-1.109,3.422.967,5.433a14.534,14.534,0,0,0,1.545,1.242c1.13.821,2.107,1.528,1.993,3.225C198.346,44.766,194.538,45.032,193.243,45.032Z" transform="translate(-179.882 -28.888)"/><path class="h" d="M181.058,39.721a.527.527,0,0,1-.511-.659,8.538,8.538,0,0,1,3.158-4.691,10.248,10.248,0,0,1,5.179-2.13.527.527,0,1,1,.12,1.047,9.214,9.214,0,0,0-4.657,1.919,7.5,7.5,0,0,0-2.778,4.119A.528.528,0,0,1,181.058,39.721Z" transform="translate(-180.53 -28.704)"/><path class="h" d="M194.934,52.12a6.051,6.051,0,0,1-3.63-1.054.527.527,0,0,1,.118-.894s2.693-1.177,5.413-2.324a22.618,22.618,0,0,0,4.144-2.629.528.528,0,0,1,.855.359c0,.043.4,4.372-3.383,5.819A9.514,9.514,0,0,1,194.934,52.12ZM192.846,50.7a7.089,7.089,0,0,0,5.223-.289,4.268,4.268,0,0,0,2.69-3.7,23.678,23.678,0,0,1-3.485,2.095C195.563,49.528,193.874,50.257,192.846,50.7Z" transform="translate(-179.942 -27.999)"/><ellipse class="h" cx="1.583" cy="1.582" rx="1.583" ry="1.582" transform="translate(5.014 8.792)"/><ellipse class="h" cx="1.583" cy="1.582" rx="1.583" ry="1.582" transform="translate(18.214 4.381)"/></g><path class="h" d="M188.594,62.59c-9.086,0-14.013-10.046-14.885-12a6.243,6.243,0,0,1-5.6-4.124,5.788,5.788,0,0,1-.229-4.7,4.8,4.8,0,0,1,2.129-2.216c-.818-1.746-3.146-7.605-.139-12.451,3.611-5.9,14.343-8.733,20.114-9.475,6.045-.821,8.726.206,10.634,4.073h0l-.474.232.479-.222c2,4.085,8.43,18.15,7.243,27.636-1.356,10.844-10.6,12.763-18.5,13.224Q188.974,62.59,188.594,62.59ZM174.415,49.532l.135.338c.049.123,5,12.253,14.75,11.644,7.961-.465,16.267-2.29,17.52-12.3,1.151-9.2-5.177-23.024-7.145-27.041l.47-.243-.474.233c-1.5-3.043-3.308-4.341-9.546-3.492-7.246.931-16.391,4.14-19.354,8.982-3.176,5.12.382,11.832.419,11.9l.295.544-.587.206a3.886,3.886,0,0,0-2.058,1.909,4.835,4.835,0,0,0,.255,3.871,5.2,5.2,0,0,0,4.891,3.458h.066Z" transform="translate(-163 -2.693)"/><g transform="translate(5.928 54.125)"><path class="f" d="M209.186,87.018s-35.276-7.924-37.438-9.274c-2.117-1.4-3.154-4.277-1.758-5.627,1.081-1.08,3.244-.633,3.649-2.026.36-1.4.135-4.008,2.388-5.627,2.428-1.756,5.136-1.125,7.389-.495S204.632,78.78,204.632,78.78s-.991-19.092.36-21.07c1.4-2.026,1.893-2.656,4.145-2.386,1.757.18,2.117,2.116,3.514,1.891,1.307-.225,4.505-3.241,6.668.36C221.711,61.581,209.186,87.018,209.186,87.018Z" transform="translate(-168.824 -54.74)"/><path class="h" d="M209.213,87.573a.551.551,0,0,1-.116-.013c-3.62-.813-35.427-7.983-37.6-9.341a5.84,5.84,0,0,1-2.627-4.093,2.841,2.841,0,0,1,.782-2.362,4.293,4.293,0,0,1,2.049-.957c.817-.213,1.325-.368,1.461-.838a9.9,9.9,0,0,0,.172-1.017c.2-1.478.481-3.5,2.414-4.891,2.761-2,5.941-1.105,7.84-.575,2.072.581,16.414,11.192,20.492,14.227-.229-4.81-.755-18.429.507-20.275,1.434-2.082,2.116-2.916,4.644-2.613a3.556,3.556,0,0,1,2.189,1.235c.484.48.762.725,1.177.659a5.1,5.1,0,0,0,1.029-.441c1.49-.746,4.263-2.133,6.176,1.051,2.468,4.134-8.818,27.317-10.112,29.946A.53.53,0,0,1,209.213,87.573ZM179.7,63.879a5.511,5.511,0,0,0-3.341,1.039c-1.566,1.127-1.8,2.82-1.987,4.179a10.47,10.47,0,0,1-.2,1.153c-.315,1.082-1.322,1.346-2.211,1.579a3.462,3.462,0,0,0-1.575.688,1.818,1.818,0,0,0-.472,1.512,4.812,4.812,0,0,0,2.146,3.3c1.506.94,22.71,5.926,36.858,9.109,4.965-10.139,11.6-25.842,9.971-28.567-1.3-2.172-2.876-1.61-4.8-.65a5.361,5.361,0,0,1-1.327.539,2.346,2.346,0,0,1-2.093-.949,2.585,2.585,0,0,0-1.564-.938c-1.939-.232-2.264.141-3.656,2.161-.91,1.332-.647,13.43-.268,20.743a.528.528,0,0,1-.843.449C196.752,73.552,184.884,64.947,183.3,64.5A13.594,13.594,0,0,0,179.7,63.879Z" transform="translate(-168.852 -54.767)"/></g><path class="h" d="M209.5,87.651l-.406-.091c-3.62-.813-35.427-7.983-37.6-9.341a5.84,5.84,0,0,1-2.627-4.093,2.841,2.841,0,0,1,.782-2.362,4.293,4.293,0,0,1,2.049-.957c.817-.213,1.325-.368,1.461-.838a9.9,9.9,0,0,0,.172-1.017c.2-1.478.481-3.5,2.414-4.891,2.761-2,5.941-1.105,7.84-.575,2.072.581,16.414,11.192,20.492,14.227-.229-4.81-.755-18.429.507-20.275,1.434-2.082,2.116-2.916,4.644-2.613a3.556,3.556,0,0,1,2.189,1.235c.484.48.762.725,1.177.659a5.1,5.1,0,0,0,1.029-.441c1.49-.746,4.263-2.133,6.176,1.051,2.468,4.134-8.818,27.317-10.112,29.946ZM179.7,63.879a5.511,5.511,0,0,0-3.341,1.039c-1.566,1.127-1.8,2.82-1.987,4.179a10.47,10.47,0,0,1-.2,1.153c-.315,1.082-1.322,1.346-2.211,1.579a3.462,3.462,0,0,0-1.575.688,1.818,1.818,0,0,0-.472,1.512,4.812,4.812,0,0,0,2.146,3.3c1.506.94,22.71,5.926,36.858,9.109,4.965-10.139,11.6-25.842,9.971-28.567-1.3-2.172-2.876-1.61-4.8-.65a5.361,5.361,0,0,1-1.327.539,2.346,2.346,0,0,1-2.093-.949,2.585,2.585,0,0,0-1.564-.938c-1.939-.232-2.264.141-3.656,2.161-.91,1.332-.647,13.43-.268,20.743l.059,1.123-.9-.674C196.752,73.552,184.884,64.947,183.3,64.5A13.594,13.594,0,0,0,179.7,63.879Z" transform="translate(-162.924 -0.642)"/><path class="h" d="M205.74,80.176a.52.52,0,0,1-.307-.1L201.6,77.33a.527.527,0,0,1,.615-.857l3.831,2.747a.527.527,0,0,1-.308.956Z" transform="translate(-161.117 0.542)"/><path class="h" d="M205.446,83.261a.518.518,0,0,1-.119-.014.527.527,0,0,1-.395-.633L210.3,59.408a.528.528,0,0,1,1.028.238L205.96,82.853A.527.527,0,0,1,205.446,83.261Z" transform="translate(-160.92 -0.41)"/><path class="h" d="M193.342,76.285a.522.522,0,0,1-.133-.017l-17.046-4.429a.528.528,0,1,1,.266-1.021l17.046,4.429a.527.527,0,0,1-.133,1.038Z" transform="translate(-162.54 0.237)"/><g transform="translate(0 82.239)"><path class="k" d="M165.438,83.576c1.267-1.306,4.91-3.152,9.1.45s19.422,26.427,19.422,26.427l23.607-24.492,8.515,6.118s-28.969,41.914-31.942,42.68-16.129-11.886-22.392-22.96C159.939,90.869,164.4,84.656,165.438,83.576Z" transform="translate(-163.207 -81.393)"/><path class="h" d="M193.934,135.341c-4.025,0-16.89-13.13-22.614-23.255-11.655-20.656-7.718-27.3-6.234-28.848l0,0c1.468-1.514,5.413-3.374,9.824.418,3.884,3.339,16.758,22.419,19.152,25.99l23.47-24.349,9.307,6.686-.294.426c-4.857,7.026-29.233,42.116-32.244,42.891A1.46,1.46,0,0,1,193.934,135.341ZM165.846,83.969c-.968,1.007-5.193,7.066,6.392,27.6,6.668,11.792,19.49,23.33,21.8,22.707,2.131-.694,20.227-25.971,31.345-42.042l-7.723-5.549L193.915,111.32l-.364-.546c-.152-.228-15.239-22.805-19.327-26.32C170.409,81.174,167.076,82.7,165.846,83.969Z" transform="translate(-163.236 -81.42)"/></g><path class="h" d="M187.911,114.435a.529.529,0,0,1-.382-.892l4.731-4.952a.528.528,0,0,1,.764.73l-4.731,4.952A.531.531,0,0,1,187.911,114.435Z" transform="translate(-161.894 2.299)"/><path class="h" d="M230.038,105.914a.528.528,0,0,1-.2-1.018l9.056-3.6a.527.527,0,1,1,.389.98l-9.056,3.6A.547.547,0,0,1,230.038,105.914Z" transform="translate(-159.554 1.906)"/><rect class="h" width="59.293" height="1.057" transform="matrix(0.999, -0.04, 0.04, 0.999, 17.436, 153.624)"/><g transform="translate(63.87 70.527)"><path class="d" d="M224.461,73.919s3.559-2.743,5-3.059,6.8,1.125,7.072,1.266c.317.09.405,1.621.405,1.621l-11.984.766Z" transform="translate(-223.704 -70.289)"/><path class="h" d="M224.762,75.084l-1.018-1.22.434-.334c.375-.288,3.7-2.825,5.211-3.156,1.562-.344,6.516.987,7.33,1.273h0c.22.062.678.192.787,2.1l.032.523Zm5.295-3.718a2.134,2.134,0,0,0-.44.037,18.665,18.665,0,0,0-4.3,2.589l11.085-.708a3.691,3.691,0,0,0-.136-.685A32.521,32.521,0,0,0,230.056,71.366Z" transform="translate(-223.744 -70.317)"/></g><g transform="translate(53.837 71.785)"><path class="d" d="M214.943,86.463S223.818,74.577,224.9,73.9c.95-.585,18.922-1.621,23.832-1.891a1.419,1.419,0,0,1,1.442,1.266h0A1.372,1.372,0,0,1,249,74.718l-12.35,1.531-.721,9.5a3.347,3.347,0,0,1-2.3,2.926l-10.852,3.462Z" transform="translate(-214.2 -71.483)"/><path class="h" d="M222.727,92.747,214.239,86.6l.32-.428c1.493-2,8.991-12,10.1-12.693,1-.616,15.518-1.5,24.084-1.97a1.888,1.888,0,0,1,.375,3.754l-11.932,1.48-.688,9.068a3.863,3.863,0,0,1-2.66,3.388Zm-7-6.369,7.189,5.2,10.6-3.382a2.807,2.807,0,0,0,1.932-2.463l.754-9.93,12.779-1.583a.847.847,0,0,0,.71-.886.883.883,0,0,0-.885-.771h-.019c-11.048.609-22.64,1.409-23.59,1.825C224.483,74.857,219.142,81.813,215.725,86.378Z" transform="translate(-214.239 -71.51)"/></g><g transform="translate(1.712)"><path class="f" d="M170.888,40.757a4.5,4.5,0,0,1,3.559-.09,5.66,5.66,0,0,1,2.477,1.936l2.523-1.266a3.155,3.155,0,0,1-2.117-2.521c-.405-2.116,2.117-2.116,4.644-4.641s-2.117-7.969-2.117-7.969,2.523,1.266,6.713,0,2.117-4.641,5.046-4.187,5.9,2.521,10.948-.405,8.424-12.2,1.267-16.388S194.145,8.6,190.36,8.153c-3.784-.405-7.163.405-10.948,4.641-3.784,4.187-3.784,2.926-5.9,3.375s-8.74,7.114-8.11,15.308a19.748,19.748,0,0,0,3.83,10.31A17.647,17.647,0,0,1,170.888,40.757Z" transform="translate(-164.83 -3.428)"/><path class="h" d="M176.953,43.158a.526.526,0,0,1-.427-.218,5.126,5.126,0,0,0-2.246-1.755,3.986,3.986,0,0,0-3.126.072,16.928,16.928,0,0,0-1.593.99.529.529,0,0,1-.727-.119A20.259,20.259,0,0,1,164.9,31.544c-.645-8.394,6.062-15.339,8.527-15.862a6.821,6.821,0,0,1,1.318-.138c.973-.027,1.561-.044,4.3-3.075,3.447-3.859,6.858-5.3,11.4-4.812,1.2.135,2.315-.706,3.61-1.688,2.342-1.775,5.258-3.985,10.072-1.17a8.337,8.337,0,0,1,4.363,7.414,12.1,12.1,0,0,1-5.631,9.886c-4.112,2.383-6.9,1.611-9.365.928a17.435,17.435,0,0,0-1.93-.459c-.981-.152-1.094.138-1.428,1a4.656,4.656,0,0,1-3.383,3.173,11.859,11.859,0,0,1-5.493.441c1.287,1.879,3.16,5.356,1.118,7.4a14.362,14.362,0,0,1-2.9,2.168c-1.319.8-1.767,1.121-1.6,2a2.628,2.628,0,0,0,1.767,2.12.527.527,0,0,1,.069.971L177.189,43.1A.523.523,0,0,1,176.953,43.158ZM172.8,39.846a5.019,5.019,0,0,1,1.87.36,6.18,6.18,0,0,1,2.431,1.759l1.213-.609a3.665,3.665,0,0,1-1.479-2.435c-.311-1.622.8-2.3,2.091-3.08a13.42,13.42,0,0,0,2.7-2.012c1.787-1.787-.944-5.843-2.147-7.255a.528.528,0,0,1,.64-.813c.02.009,2.412,1.148,6.324-.034a3.611,3.611,0,0,0,2.7-2.547c.354-.908.757-1.94,2.575-1.655a18.069,18.069,0,0,1,2.049.485c2.372.655,4.824,1.336,8.553-.826a11.137,11.137,0,0,0,5.106-8.974,7.216,7.216,0,0,0-3.84-6.5c-4.205-2.459-6.593-.65-8.9,1.1-1.415,1.073-2.747,2.093-4.366,1.9-3.079-.331-6.485-.018-10.492,4.468-2.909,3.218-3.735,3.388-5.057,3.425a5.7,5.7,0,0,0-1.128.115c-1.8.382-8.314,6.693-7.694,14.752a19.2,19.2,0,0,0,3.432,9.625c.415-.272.842-.531,1.277-.768l.033-.016A5.038,5.038,0,0,1,172.8,39.846Z" transform="translate(-164.858 -3.455)"/></g></g></g></g><g transform="translate(288.603 29.419)"><path class="l" d="M300.872,74.988q-13.674-2.9-27.387-5.808a80.668,80.668,0,0,1,8.768-41.309q13.713,2.877,27.387,5.809A80.667,80.667,0,0,0,300.872,74.988Z" transform="translate(-273.36 -27.871)"/><path class="d" d="M303.66,35.413c-5.927-1.26-11.877-2.51-17.807-3.77a3.859,3.859,0,0,1-3.585,2.016,72.189,72.189,0,0,0-6.358,30.016,3.871,3.871,0,0,1,2.462,3.276c5.926,1.261,11.876,2.51,17.806,3.771a2.1,2.1,0,0,1,2.53-2.219,72.115,72.115,0,0,1,6.367-29.99,2.129,2.129,0,0,1-1.419-3.1Z" transform="translate(-273.218 -27.661)"/><path class="l" d="M296.2,51.373c-.753,3.48-4.643,5.608-9.086,4.661-4.4-.937-7.679-4.584-6.924-8.064s5.235-5.46,9.662-4.534C294.263,44.391,296.949,47.895,296.2,51.373Z" transform="translate(-272.986 -27.019)"/><path class="l" d="M294.279,38.2a3.528,3.528,0,0,1-3.833,2.134,2.37,2.37,0,0,1-1.952-2.722,2.332,2.332,0,0,1,.175-.583,3.565,3.565,0,0,1,3.926-2.079,2.274,2.274,0,0,1,1.888,2.6A2.245,2.245,0,0,1,294.279,38.2Z" transform="translate(-272.521 -27.481)"/><path class="f" d="M289.09,62.6a2.307,2.307,0,0,1-2.881,2.3,3.547,3.547,0,0,1-2.741-3.5,2.412,2.412,0,0,1,2.434-2.388,2.437,2.437,0,0,1,.546.069A3.56,3.56,0,0,1,289.09,62.6Z" transform="translate(-272.798 -26.141)"/></g><g transform="translate(274.471 23.83)"><path class="l" d="M296.823,63.7q-13.61,3.159-27.263,6.324A80.644,80.644,0,0,1,260.029,28.9q13.639-3.194,27.264-6.323A80.641,80.641,0,0,0,296.823,63.7Z" transform="translate(-259.973 -22.576)"/><path class="d" d="M282.682,26.584c-5.9,1.365-11.82,2.75-17.724,4.117a3.857,3.857,0,0,1-2.4,3.342A72.2,72.2,0,0,0,269.5,63.919a3.869,3.869,0,0,1,3.616,1.926c5.9-1.365,11.819-2.75,17.723-4.116a2.1,2.1,0,0,1,.8-2.863,2.037,2.037,0,0,1,.557-.216,72.079,72.079,0,0,1-6.919-29.859,2.125,2.125,0,0,1-2.547-1.6,2.1,2.1,0,0,1-.05-.613Z" transform="translate(-259.83 -22.353)"/><path class="l" d="M281.2,43.943c.763,2.734-1.187,5.419-4.67,6.04-3.449.622-7.112-1.047-7.872-3.782s1.657-5.485,5.119-6.119C277.244,39.471,280.437,41.209,281.2,43.943Z" transform="translate(-259.499 -21.61)"/><path class="l" d="M275.657,33.733a3.527,3.527,0,0,1-2.569,3.554,2.368,2.368,0,0,1-3.007-2.242,3.563,3.563,0,0,1,2.676-3.543,2.272,2.272,0,0,1,2.811,1.558A2.243,2.243,0,0,1,275.657,33.733Z" transform="translate(-259.412 -22.085)"/><path class="l" d="M281.291,56a2.308,2.308,0,0,1-1.634,3.306,3.547,3.547,0,0,1-3.965-2.013,2.409,2.409,0,0,1,1.717-3.361A3.558,3.558,0,0,1,281.291,56Z" transform="translate(-259.112 -20.837)"/></g><path class="f" d="M92.426,187.591H54.239c-10.219,0-18.538-8.01-18.538-17.92V147.978c0-9.876,8.283-17.915,18.538-17.915H92.426c10.219,0,18.538,8,18.538,17.915v21.7A18.261,18.261,0,0,1,92.426,187.591Z" transform="translate(1.984 7.077)"/><path class="b" d="M15.674,125.747Q7.837,118.921,0,112.051A59.5,59.5,0,0,1,20.635,88.4l15.676,13.65A60.265,60.265,0,0,0,15.674,125.747Z" transform="translate(0 4.832)"/><g transform="translate(42.687 161.463)"><path class="m" d="M81.933,189.463c-8.022,3.83-16.084,7.706-24.1,11.533a77.243,77.243,0,0,1-17.39-36.358c8.022-3.83,16.083-7.706,24.1-11.533A77.243,77.243,0,0,0,81.933,189.463Z" transform="translate(-40.44 -153.105)"/></g><g transform="translate(71.332 123.828)"><path class="d" d="M95.136,168.372l-27.572-9.326a84.032,84.032,0,0,1,14.057-41.628l27.572,9.326A84.032,84.032,0,0,0,95.136,168.372Z" transform="translate(-67.564 -117.418)"/></g><path class="m" d="M158.454,152.59c2.428,7.614,4.821,15.227,7.254,22.841a68.99,68.99,0,0,1-34.465,10.9c-2.428-7.614-4.821-15.227-7.254-22.841A68.99,68.99,0,0,0,158.454,152.59Z" transform="translate(6.915 8.329)"/><g transform="translate(125.542 159.883)"><path class="d" d="M164.683,167.873c-3.6,7.749-7.208,15.453-10.767,23.2a73.759,73.759,0,0,1-35.006-16.264c3.6-7.749,7.208-15.453,10.767-23.2A73.936,73.936,0,0,0,164.683,167.873Z" transform="translate(-118.91 -151.609)"/></g><path class="n" d="M385.9,9.777s7.594,2.03,8.585,3.471-2.939,14.91-2.939,14.91Z" transform="translate(21.521 0.543)"/><path class="h" d="M391.3,29.673h-.011a.528.528,0,0,1-.5-.4l-4.573-18.736a.529.529,0,0,1,.62-.643c1.16.24,7.008,1.515,8.067,3.053s-2.1,12.9-3.094,16.346A.528.528,0,0,1,391.3,29.673ZM387.442,11.1l3.895,15.963c1.738-6.3,3.136-12.687,2.692-13.533C393.49,12.753,390.1,11.711,387.442,11.1Z" transform="translate(21.538 0.549)"/><g transform="translate(326.429 0)"><g class="o"><g transform="translate(12.749 2.848)"><g transform="translate(23.999 138.937)"><path class="p" d="M354.522,148.112l-9.951,57.706,24.052,1.559,15.543-36.845L395.038,207.4l25.255-1.858L414.8,150.093l-2.428-14.857L363,134.919Z" transform="translate(-343.951 -134.389)"/><path class="h" d="M394.686,207.985l-10.576-35.86L369,207.956l-25.012-1.622.1-.578,9.969-57.811.058-.091,8.634-13.436,50.114.322,2.5,15.3,5.545,56.022Zm-10.4-38.993,11.169,37.88,24.292-1.787-5.436-54.913-2.352-14.385-48.64-.311-8.263,12.857-9.834,57.023,23.092,1.5Z" transform="translate(-343.984 -134.417)"/></g><g transform="translate(34.897 61.414)"><path class="l" d="M408.061,149.169l-53.252-4.277V61.423H404.5Z" transform="translate(-354.281 -60.896)"/><path class="h" d="M408.639,149.769l-.593-.047-53.737-4.315V60.923h50.728Zm-53.275-5.336,52.172,4.19-3.514-86.645H355.365Z" transform="translate(-354.309 -60.923)"/></g><g transform="translate(47.351 41.804)"><path class="d" d="M366.632,42.857s.811,18.009,1.442,21.115c1.081,5.268,12.075,9.095,17.029,4.457,4.1-3.827,3.47-7.924,3.378-12.471-.135-4.547-.5-12.11-.5-12.11Z" transform="translate(-366.078 -42.303)"/><path class="h" d="M379.158,71.061a14.939,14.939,0,0,1-4.445-.7c-3.8-1.208-6.6-3.66-7.127-6.25-.632-3.113-1.419-20.461-1.451-21.2l-.027-.578,22.413,1.039.022.48c0,.076.362,7.62.5,12.12.01.48.024.949.04,1.415.133,4.046.259,7.869-3.585,11.457A9.09,9.09,0,0,1,379.158,71.061ZM367.214,43.44c.146,3.1.854,17.737,1.406,20.457.456,2.22,2.973,4.363,6.411,5.456,3.023.96,7.168,1.129,9.74-1.279,3.5-3.263,3.382-6.688,3.252-10.654-.016-.468-.032-.943-.041-1.422-.113-3.829-.391-9.879-.472-11.616Z" transform="translate(-366.107 -42.332)"/></g><g transform="translate(38.657 24.206)"><path class="d" d="M362.932,26.26s-2.831-.72-4.117,1.576.457,7.563,2.059,8.283a3.61,3.61,0,0,0,2.973,0Z" transform="translate(-357.843 -25.62)"/><path class="h" d="M362.389,36.995a4.145,4.145,0,0,1-1.7-.367c-1.233-.555-2.029-2.714-2.243-3.364-.579-1.752-.9-4.159-.06-5.658a4.227,4.227,0,0,1,4.708-1.829l.361.092.986,10.6-.343.155A4.139,4.139,0,0,1,362.389,36.995Zm-.45-10.291a2.859,2.859,0,0,0-2.635,1.417c-.554.989-.5,2.879.139,4.813a4.943,4.943,0,0,0,1.675,2.732,3.09,3.09,0,0,0,2.193.133l-.841-9.062A4.158,4.158,0,0,0,361.939,26.7Z" transform="translate(-357.871 -25.648)"/></g><g transform="translate(72.581 24.195)"><path class="d" d="M391.367,26.26a3.274,3.274,0,0,1,3.746,1.576c1.171,2.3-.416,7.563-1.873,8.283a3.022,3.022,0,0,1-2.705,0Z" transform="translate(-389.98 -25.61)"/><path class="h" d="M391.917,36.992a3.55,3.55,0,0,1-1.589-.373l-.32-.159.892-10.581.354-.1a3.785,3.785,0,0,1,4.351,1.829c.819,1.606.429,4.219-.153,5.973-.247.746-.933,2.534-1.95,3.037A3.533,3.533,0,0,1,391.917,36.992Zm-.8-1.184a2.5,2.5,0,0,0,1.912-.133,4.575,4.575,0,0,0,1.417-2.425c.558-1.685.844-3.929.223-5.148a2.724,2.724,0,0,0-2.784-1.381Z" transform="translate(-390.009 -25.638)"/></g><g transform="translate(41.597 7.559)"><path class="d" d="M361.168,17.243s.7,19.43,4.785,26.981c2.927,5.4,10.73,9.837,18.423,5.993a16.294,16.294,0,0,0,5.676-5.38c5.528-11.234-.566-30.866-1.372-31.822-.913-4.361-3.559-2-6.888-2.148C376.433,10.327,361.168,17.243,361.168,17.243Z" transform="translate(-360.628 -9.839)"/><path class="h" d="M378.418,52.2a15.027,15.027,0,0,1-12.9-7.7c-4.094-7.574-4.821-26.415-4.849-27.213l-.013-.353.323-.147c.628-.285,15.458-6.967,20.894-6.419a11.294,11.294,0,0,0,2.566-.274c1.968-.368,4-.748,4.767,2.754,1.16,2.108,6.787,21.193,1.347,32.248a16.905,16.905,0,0,1-5.888,5.605A13.878,13.878,0,0,1,378.418,52.2Zm-16.679-34.6c.121,2.666,1.03,19.593,4.707,26.395,3,5.537,10.626,9.317,17.723,5.773a15.814,15.814,0,0,0,5.467-5.193c5.261-10.7-.471-30-1.337-31.206l-.107-.223c-.54-2.582-1.55-2.392-3.558-2.019a12.12,12.12,0,0,1-2.836.289C377.007,10.929,363.969,16.618,361.739,17.605Z" transform="translate(-360.656 -9.866)"/></g><g transform="translate(34.262)"><path class="q" d="M362.274,28.83s-5.762-5.274-5.9-7.57,1.442-3.106,1.307-3.737a10.5,10.5,0,0,0-3.244-3.827c-1.577-1.08,5.375-2.816,5.375-2.816a101.632,101.632,0,0,1,12.2-5.991c7.433-3.106,9.273-1.5,11.887,1.379,1.648,1.855,2.913,2.4,4.047,4.613l-15.939,6.085-.6-1.223-9.133,2.631Z" transform="translate(-353.679 -2.673)"/><path class="h" d="M362.829,30.056l-.885-.809c-.606-.555-5.925-5.489-6.067-7.929a4.706,4.706,0,0,1,1.031-3.245,3.613,3.613,0,0,0,.267-.412,10.031,10.031,0,0,0-3.018-3.51.9.9,0,0,1-.438-.925c.206-1.143,3.317-2.157,5.922-2.812a102.47,102.47,0,0,1,12.2-5.985c7.665-3.2,9.734-1.513,12.478,1.512A21.151,21.151,0,0,0,385.882,7.5a10.513,10.513,0,0,1,2.565,3.171l.268.523-16.936,6.467-.623-1.258-8.327,2.4Zm-7.995-16.719a11.135,11.135,0,0,1,3.348,3.978l.044.124a1.62,1.62,0,0,1-.454,1.24,3.683,3.683,0,0,0-.842,2.577c.078,1.323,2.729,4.316,4.843,6.376V18l9.938-2.863.587,1.188,14.923-5.7a10.007,10.007,0,0,0-2.056-2.361,22.378,22.378,0,0,1-1.63-1.625c-2.36-2.6-3.919-4.323-11.288-1.243a101.431,101.431,0,0,0-12.142,5.962l-.136.055A17.146,17.146,0,0,0,354.834,13.337Z" transform="translate(-353.707 -2.7)"/></g><g transform="translate(44.359 19.504)"><path class="h" d="M363.8,26.179a.52.52,0,0,1-.284-.083.527.527,0,0,1-.159-.729,8.042,8.042,0,0,1,9.011-3.419.527.527,0,1,1-.287,1.015,7,7,0,0,0-7.836,2.974A.528.528,0,0,1,363.8,26.179Z" transform="translate(-363.273 -21.166)"/><path class="h" d="M386.54,23.592a.527.527,0,0,1-.365-.147c-2.737-2.614-7.257-.083-7.3-.058a.528.528,0,0,1-.525-.916c.212-.122,5.246-2.951,8.556.212a.527.527,0,0,1-.364.908Z" transform="translate(-362.45 -21.191)"/><path class="h" d="M375.977,33.9c-1.342,0-2.711-.194-3.274-.9-1.053-1.374.705-5.937,1.269-7.3a.527.527,0,1,1,.975.4c-1.048,2.541-1.866,5.658-1.413,6.249.543.677,3.549.541,5.4.235a.527.527,0,1,1,.173,1.04A20.637,20.637,0,0,1,375.977,33.9Z" transform="translate(-362.767 -20.962)"/><path class="h" d="M377.551,43.467a3.535,3.535,0,0,1-.395-.021c-2.87-.281-4.141-3.534-4.194-3.673a.529.529,0,0,1,.066-.5.54.54,0,0,1,.454-.216l9.272.473a.528.528,0,0,1,.36.887C382.995,40.548,380.245,43.467,377.551,43.467Zm-3.218-3.308a4.154,4.154,0,0,0,2.933,2.237c1.421.166,3.11-.955,4.2-1.873Z" transform="translate(-362.736 -20.211)"/><ellipse class="h" cx="1.583" cy="1.582" rx="1.583" ry="1.582" transform="translate(3.681 6.736)"/><ellipse class="h" cx="1.583" cy="1.582" rx="1.583" ry="1.582" transform="translate(17.873 6.376)"/></g><g transform="translate(2.055 48.135)"><g transform="translate(66.812 5.449)"><path class="d" d="M386.991,67.458s.95,40.384,2.117,46.728,13.155,34.981,13.155,34.981l10.813,1.171-4.46-41.825,1.519-50.084L387.667,54Z" transform="translate(-386.463 -53.472)"/><path class="h" d="M413.1,150.893a.533.533,0,0,1-.057,0l-10.813-1.171a.527.527,0,0,1-.43-.321c-.491-1.172-12.025-28.761-13.188-35.089S386.53,69.149,386.491,67.5c0-.014,0-.026,0-.039L387.168,54a.528.528,0,0,1,.629-.492l22.47,4.43a.527.527,0,0,1,.425.534l-1.519,50.084,4.457,41.753a.526.526,0,0,1-.525.583ZM402.659,148.7l9.853,1.067L408.119,108.6l1.5-49.708-21.431-4.226-.645,12.83c.026,1.075.971,40.448,2.109,46.625C390.737,120,401.4,145.689,402.659,148.7Z" transform="translate(-386.491 -53.5)"/></g><g transform="translate(20.455 4.184)"><path class="d" d="M369.428,68.92s4.415,44.705,2.342,59.427c-.766,5.627-7.072,21.61-7.072,21.61l-21.625.72L351.318,122l-4.687-66.226L368.454,52.8Z" transform="translate(-342.546 -52.273)"/><path class="h" d="M343.1,151.232a.527.527,0,0,1-.507-.673l8.219-28.588-4.68-66.134a.528.528,0,0,1,.456-.56L368.411,52.3a.528.528,0,0,1,.6.492l.973,16.11c.088.882,4.386,45,2.339,59.541-.765,5.623-6.845,21.076-7.1,21.731a.528.528,0,0,1-.473.333l-21.624.72Zm4.121-94.976,4.651,65.733a.506.506,0,0,1-.02.182l-8.044,27.981,20.553-.684c.893-2.29,6.225-16.1,6.915-21.166,2.039-14.494-2.3-58.859-2.345-59.305v-.02l-.94-15.552Z" transform="translate(-342.574 -52.3)"/></g><g transform="translate(36.757 1.652)"><path class="d" d="M368.569,69.051l-2.7-2.2-7.352,2.2,2.306-15.267,3.6-2.342,2.956-1.042Z" transform="translate(-357.99 -49.872)"/><path class="h" d="M358.546,69.606a.526.526,0,0,1-.522-.607l2.307-15.267a.525.525,0,0,1,.234-.363l3.6-2.343a.525.525,0,0,1,.112-.055l2.956-1.042a.529.529,0,0,1,.7.464l1.184,18.651a.528.528,0,0,1-.859.443l-2.483-2.02L358.7,69.584A.539.539,0,0,1,358.546,69.606Zm2.793-15.482-2.147,14.212,6.555-1.959a.53.53,0,0,1,.485.1l1.763,1.435L366.93,51.156l-2.238.789Z" transform="translate(-358.018 -49.9)"/></g><g transform="translate(66.781)"><path class="d" d="M386.962,69.788l2.276-3.9h5.911l-1.533-12.236-6.487-4.816v2.925Z" transform="translate(-386.434 -48.306)"/><path class="h" d="M386.99,70.343a.536.536,0,0,1-.14-.019.527.527,0,0,1-.387-.514l.167-20.95a.527.527,0,0,1,.842-.423l6.486,4.816a.526.526,0,0,1,.21.358L395.7,65.847a.535.535,0,0,1-.128.415.527.527,0,0,1-.4.178h-5.608l-2.123,3.641A.528.528,0,0,1,386.99,70.343Zm.695-20.434v1.877l-.149,16.046,1.275-2.185a.525.525,0,0,1,.455-.262h5.313l-1.43-11.419Z" transform="translate(-386.462 -48.334)"/></g><g transform="translate(0 7.157)"><path class="d" d="M347.708,55.619a17.033,17.033,0,0,0-5.586,5.988c-2.163,3.962-18.427,41.735-18.427,41.735l18.562,5.538,7.975-17.153Z" transform="translate(-323.168 -55.091)"/><path class="h" d="M342.285,109.435a.52.52,0,0,1-.15-.021l-18.562-5.539a.526.526,0,0,1-.335-.714c.664-1.543,16.3-37.841,18.449-41.779a17.606,17.606,0,0,1,5.76-6.177.528.528,0,0,1,.815.405l2.524,36.109a.522.522,0,0,1-.049.258l-7.975,17.153A.526.526,0,0,1,342.285,109.435Zm-17.842-6.4L342,108.272l7.725-16.618-2.449-35.047a16.552,16.552,0,0,0-4.662,5.284C340.627,65.524,326.448,98.379,324.443,103.034Z" transform="translate(-323.195 -55.119)"/></g><g transform="translate(89.023 9.846)"><path class="d" d="M409.055,58.167c2.036,1.1,5.878,6.6,7.088,8.567,1.667,3.017,12.7,38.988,12.7,38.988L410.736,110.4l-2.7-8.464Z" transform="translate(-407.505 -57.64)"/><path class="h" d="M410.764,110.96a.53.53,0,0,1-.5-.367l-2.7-8.464a.533.533,0,0,1-.025-.173l1.022-43.774a.528.528,0,0,1,.778-.451c2.183,1.176,6.105,6.83,7.288,8.756,1.686,3.051,12.309,37.638,12.76,39.109a.528.528,0,0,1-.373.665L410.9,110.943A.52.52,0,0,1,410.764,110.96Zm-2.173-9.067,2.525,7.9,17.093-4.419c-1.372-4.46-10.987-35.622-12.5-38.361-1.1-1.785-4.138-6.111-6.121-7.815Z" transform="translate(-407.533 -57.668)"/></g></g><g transform="translate(3.135 110.398)"><path class="d" d="M342.02,107.861s18.336,30.884,18.7,31.7c.225.405,2.428,1.4,4.415,2.251a10.677,10.677,0,0,1,5.091,4.457l4.461,7.743a1.207,1.207,0,0,1-.458,1.646l-.038.02h0a3.493,3.493,0,0,1-2.428-.766l-4.505-5.4a2.522,2.522,0,0,0-2.028-.9l-9.6.99L353.6,143.83A12.366,12.366,0,0,0,351.435,140l-26.716-31.739Z" transform="translate(-324.191 -107.334)"/><path class="h" d="M373.976,156.235a4,4,0,0,1-2.52-.89l-4.579-5.476a2.025,2.025,0,0,0-1.6-.711l-9.561.987a.518.518,0,0,1-.553-.349l-2.033-5.764a11.811,11.811,0,0,0-2.07-3.665l-26.715-31.735a.528.528,0,0,1,.392-.868l17.3-.4a.556.556,0,0,1,.466.259c1.879,3.163,18.363,30.934,18.726,31.749a27.121,27.121,0,0,0,4.142,1.981,11.276,11.276,0,0,1,5.338,4.675l4.462,7.745a1.734,1.734,0,0,1-.657,2.369.739.739,0,0,1-.261.086C374.159,156.232,374.067,156.235,373.976,156.235Zm-8.65-8.132a3.073,3.073,0,0,1,2.361,1.091l4.506,5.4a2.912,2.912,0,0,0,1.862.582.666.666,0,0,0,.261-.368.675.675,0,0,0-.064-.517l-4.458-7.74a10.218,10.218,0,0,0-4.838-4.233c-3.642-1.567-4.451-2.082-4.673-2.482-.388-.82-13.355-22.694-18.532-31.416l-15.892.37,26.009,30.9a12.866,12.866,0,0,1,2.257,3.992l1.895,5.37,9.181-.947C365.242,148.1,365.284,148.1,365.326,148.1Z" transform="translate(-324.219 -107.361)"/></g><g transform="translate(77.591 108.779)"><path class="d" d="M398.877,148.013l-3.244,7.654c-.721,1.35-.317,2.116.451,2.426a2.235,2.235,0,0,0,2.207-.675l3.469-4.457a3.033,3.033,0,0,1,2.428-1.171l7.84-.18,1.442-6.573,15.008-38.712-14.552,1.215-7.344,34.711-2.793.81A9.275,9.275,0,0,0,398.877,148.013Z" transform="translate(-394.728 -105.799)"/><path class="h" d="M396.654,158.716a2.75,2.75,0,0,1-.67-.082,1.815,1.815,0,0,1-1.122-1.06,2.624,2.624,0,0,1,.334-2.128l3.223-7.611a9.755,9.755,0,0,1,5.191-5.231l2.549-.744,7.278-34.4a.527.527,0,0,1,.472-.416l14.552-1.215a.518.518,0,0,1,.467.209.527.527,0,0,1,.069.507l-15.007,38.711-1.419,6.5a.528.528,0,0,1-.5.415l-7.839.18a2.583,2.583,0,0,0-2.023.967l-3.47,4.456A2.785,2.785,0,0,1,396.654,158.716Zm17.733-50.654-7.261,34.327a.527.527,0,0,1-.369.4l-2.793.811a8.689,8.689,0,0,0-4.574,4.646v0l-3.244,7.654a1.755,1.755,0,0,0-.291,1.313.74.74,0,0,0,.456.42,1.709,1.709,0,0,0,1.615-.54l3.444-4.427a3.579,3.579,0,0,1,2.813-1.375h.038l7.406-.171,1.353-6.169,14.727-38Z" transform="translate(-394.755 -105.826)"/></g><g transform="translate(0 93.846)"><path class="d" d="M343.716,101.427,326.1,92.378a1.827,1.827,0,0,0-2.467.768,1.8,1.8,0,0,0-.2.628l-1.667,13.912a2.971,2.971,0,0,0,2.588,3.31h0a3.076,3.076,0,0,0,.43.021l17.615-.54a1.945,1.945,0,0,0,1.893-1.756l.54-5.087A2.022,2.022,0,0,0,343.716,101.427Z" transform="translate(-321.221 -91.642)"/><path class="h" d="M324.753,111.572a3.642,3.642,0,0,1-.43-.026,3.505,3.505,0,0,1-3.049-3.9l1.668-13.911a2.318,2.318,0,0,1,.253-.81,2.359,2.359,0,0,1,3.178-.989l17.6,9.044a2.551,2.551,0,0,1,1.407,2.777l-.534,5.044a2.471,2.471,0,0,1-2.406,2.228l-17.61.54Zm.526-18.85a1.322,1.322,0,0,0-.386.059,1.294,1.294,0,0,0-.763.636,1.279,1.279,0,0,0-.14.447l-1.667,13.911a2.449,2.449,0,0,0,2.129,2.724,3.419,3.419,0,0,0,.355.017l17.611-.54A1.418,1.418,0,0,0,343.8,108.7l.542-5.094a1.513,1.513,0,0,0-.823-1.673l-.016-.007-17.614-9.049A1.3,1.3,0,0,0,325.279,92.723Z" transform="translate(-321.248 -91.669)"/></g><g transform="translate(91.303 97.036)"><path class="d" d="M408.249,100.766l.633,7.789A2,2,0,0,0,411,110.4l18.336-.9a2.744,2.744,0,0,0,2.611-2.869,2.6,2.6,0,0,0-.043-.372l-1.667-9.319a2.122,2.122,0,0,0-2.453-1.725l-.07.014-17.976,3.6A1.86,1.86,0,0,0,408.249,100.766Z" transform="translate(-407.718 -94.667)"/><path class="h" d="M410.907,110.959a2.545,2.545,0,0,1-2.523-2.335l-.633-7.788v-.012a2.4,2.4,0,0,1,1.912-2.484l17.977-3.6a2.668,2.668,0,0,1,3.146,2.137l1.667,9.317a2.9,2.9,0,0,1,.052.444,3.275,3.275,0,0,1-3.115,3.417l-18.334.9C411.006,110.957,410.956,110.959,410.907,110.959Zm-2.1-10.2.632,7.782A1.464,1.464,0,0,0,411,109.9l18.34-.9a2.221,2.221,0,0,0,2.111-2.317,2.126,2.126,0,0,0-.035-.3l-1.668-9.325a1.6,1.6,0,0,0-1.843-1.3l-18.032,3.613A1.34,1.34,0,0,0,408.8,100.757Z" transform="translate(-407.746 -94.694)"/></g><path class="h" d="M344.461,104.289a.476.476,0,0,1-.12-.015l-18.562-4.366a.528.528,0,0,1,.241-1.027l18.562,4.368a.527.527,0,0,1-.12,1.04Z" transform="translate(-321.019 2.571)"/><path class="h" d="M331.021,105.287a.527.527,0,0,1-.024-1.054l12.57-.585a.511.511,0,0,1,.551.5.526.526,0,0,1-.5.552l-12.57.585Z" transform="translate(-320.735 2.833)"/><path class="h" d="M408.828,103.848a.527.527,0,0,1-.077-1.048l16.58-2.477a.536.536,0,0,1,.6.444.529.529,0,0,1-.443.6l-16.58,2.475A.5.5,0,0,1,408.828,103.848Z" transform="translate(-316.412 2.651)"/></g></g></g></g></svg>