<svg xmlns="http://www.w3.org/2000/svg" viewBox="0 0 79.648 58.837">
  <defs>
    <style>
      .a,.j,.k{fill:none}.b{fill:#006c9a}.c,.h,.r,.t{fill:#fff}.e{fill:#e0e0e0}.g{fill:#cecece}.h{stroke:#e0e0e0;stroke-width:.3px}.i{fill:url(#c)}.j,.k{stroke:#a5a4a2;stroke-miterlimit:10}.k{stroke:#e26969;stroke-width:1.4px}.m,.n{fill:#7cc680}.m{stroke:#fff}.m,.n{fill-rule:evenodd}.r{opacity:.6}.s,.t{stroke:none}
    </style>
    <clipPath id="a">
      <path d="M735.963 377.911a85.612 85.612 0 0 1-10.449 0c-4.953-.373-12.14-.8-15.323-1.543s-6.828-.9-7.445.854h-3.875l.032-2.559 2.664-4.146 8.624-2.341 8.778 1.117 9.241 3.138z" class="a" transform="translate(-698.872 -368.175)"/>
    </clipPath>
    <clipPath id="b">
      <path d="M759.656 318.742l4.8 2.569 5.647 28.834-7.129-3.932z" class="a" transform="translate(-759.656 -318.742)"/>
    </clipPath>
    <linearGradient id="c" x1="1.19" x2="1.19" y1="-1.544" y2="-2.307" gradientUnits="objectBoundingBox">
      <stop offset=".002" stop-color="#2b2727" stop-opacity="0"/>
      <stop offset=".208" stop-color="#342e2e" stop-opacity=".153"/>
      <stop offset=".607" stop-color="#4b4141" stop-opacity=".549"/>
      <stop offset="1" stop-color="#665858"/>
    </linearGradient>
  </defs>
  <path d="M7.085 11.379L.719 41.489h38.94l-.488-31.041z" class="b"/>
  <path d="M39.663 41.488v1.784L0 42.237s5.856-30.819 7.085-30.855L.718 41.492z" class="b"/>
  <path d="M72.563 11.565l6.366 30.11h-38.94l.488-31.041z" class="b"/>
  <path d="M77.081 40.985a85.612 85.612 0 0 1-10.449 0c-4.953-.373-12.14-.8-15.323-1.543s-6.828-.9-7.445.854h-3.875l.032-2.559 2.664-4.146 8.624-2.341 8.778 1.117 9.241 3.138z" class="c"/>
  <g clip-path="url(#a)" transform="translate(39.99 31.249)">
    <path d="M.147 8.479C1.676 3.411 8.33 3.951 9.896 4.356a97.165 97.165 0 0 0 14.2 2.5c5.5.418 7.633-.021 7.712-.039l-.25-.277c-.018 0-1.993.412-7.44 0A96.746 96.746 0 0 1 9.975 4.047c-1.622-.42-8.517-.968-10.119 4.337z" class="e"/>
    <path d="M.144 9.099c.728-2.137 2.46-3.435 5.149-3.858a17.662 17.662 0 0 1 6.2.341l.676.155a86.365 86.365 0 0 0 13.053 2.189c5.631.423 7.38-.588 7.448-.63l-.253-.233.078.138-.077-.138c-.017.01-1.67.961-7.173.544a85.865 85.865 0 0 1-13.009-2.183l-.677-.154a17.64 17.64 0 0 0-6.309-.345C2.438 5.367.624 6.736-.15 8.993z" class="e"/>
    <path d="M-.017 9.078a7.55 7.55 0 0 1 5.19-3.142 12.461 12.461 0 0 1 5.536.123c2.841.857 11.458 2.934 15.931 2.985a16.467 16.467 0 0 0 7.117-1.2l-.277-.206a16.266 16.266 0 0 1-6.835 1.087c-4.443-.052-13.021-2.118-15.848-2.973C8.004 4.91 1.913 5.243-.278 8.91z" class="e"/>
    <path d="M27.89 9.643c.314 0 .611 0 .889-.014a40.821 40.821 0 0 0 6.733-.765l-.252-.277a38.686 38.686 0 0 1-6.49.723c-3.8.133-11.207-.672-13.656-1.483C7.806 5.411 2.722 5.817.414 9.004l.247.192c2.222-3.067 7.187-3.435 14.358-1.064 2.295.755 8.878 1.511 12.871 1.511z" class="e"/>
    <path d="M17.085 9.255l.25-.24c-.053-.013-5.489-1.408-7.045-1.943a10.619 10.619 0 0 0-4.163-.27c-1.418.178-3.27.708-4.031 2.224l.273.148c1.25-2.488 6.111-2.389 7.823-1.8 1.568.54 6.839 1.868 6.893 1.881z" class="e"/>
    <path d="M3.513 9.138c.014-.061.381-1.489 2.665-1.254l.407-.2C3.746 7.202 3.217 9.041 3.212 9.06z" class="e"/>
  </g>
  <path d="M66.632 9.581l4.8 2.569 5.647 28.834-7.129-3.932z" class="c"/>
  <g clip-path="url(#b)" transform="translate(66.632 9.581)">
    <path d="M5.029 28.8l.3-.07L-.496-.688l-.3.071z" class="g"/>
    <path d="M6.022 29.757l.3-.072L.413-.924l-.3.074z" class="g"/>
    <path d="M6.843 30.815l.3-.075L1.153-.98l-.3.076z" class="g"/>
    <path d="M7.945 30.729l.3-.074-5.99-31.72-.3.075z" class="g"/>
    <path d="M8.954 32.028l.3-.075L3.265.234l-.3.073z" class="g"/>
    <path d="M10.051 31.944l.3-.075L4.36.15l-.3.075z" class="g"/>
  </g>
  <path d="M39.99 10.654s.462-6 8.856-4.647 15.555 3.033 17.325 1.2l5.623 28.966s-.693 1.2-4.467 1.038a71.451 71.451 0 0 1-15.632-2.075c-5.853-1.6-11.7-.479-11.7 4.548z" class="h"/>
  <path d="M39.99 41.675v1.784l39.658-1.039s-5.857-30.819-7.085-30.855l6.366 30.11z" class="b"/>
  <path d="M35.869 41.675s1.219 2.913 4.121 2.913 4.351-2.913 4.351-2.913z" class="b"/>
  <path d="M36.166 40.863s.383 1.557 3.823 1.557 4.053-1.557 4.053-1.557z" class="b"/>
  <path d="M40.222 9.68s-.137-.28-.4-.693a6.209 6.209 0 0 0-1.251-1.624 5.375 5.375 0 0 0-4.4-1.939c-3.791.385-19.878 2.514-24.848.635l-.9 8.762.049-.008-5.084 26.183s15.146.725 22.267-1 10.2-1.433 10.643 0h3.808l.114-30.075s-.024-.087-.077-.233z" class="h"/>
  <path d="M20.911 13.461a.794.794 0 0 0-.706.827 1 1 0 0 1 1.7-.378.794.794 0 0 0-.994-.449z" class="i"/>
  <path d="M44.341 40.426c0 .242-.134.437-.3.437h-7.876c-.164 0-.3-.194-.3-.437 0-.24.134-.436.3-.436h7.876c.164 0 .3.2.3.436z" class="b"/>
  <path d="M43.022 13.769s15.148-.451 23.136-.225" class="j"/>
  <path d="M43.022 16.184s15.148-.451 23.136-.225" class="j"/>
  <path d="M43.022 18.599s15.148-.451 23.136-.225" class="j"/>
  <path d="M44.323 30.473s15.148-.451 23.137-.225" class="j"/>
  <path d="M44.579 33.422s15.148-.451 23.136-.225" class="j"/>
  <path d="M43.022 21.255s15.148-.451 23.136-.225" class="j"/>
  <path d="M43.022 24.081s15.148-.451 23.136-.225" class="j"/>
  <path d="M43.022 27.068s15.148-.451 23.136-.225" class="j"/>
  <path d="M53.849 12.403v2.783h7.575l.158-2.783" class="c"/>
  <path d="M54.487 12.255a14.39 14.39 0 0 0-11.668-.367c-.894.365-1.893 1.047-1.793 2.007a1.646 1.646 0 0 0 .95 1.222 4.855 4.855 0 0 0 1.56.387l4.57.608a18.922 18.922 0 0 0 3.863.248 9.475 9.475 0 0 0 2.835-.655 2.052 2.052 0 0 0 1.266-1.043 1.539 1.539 0 0 0-.339-1.463 4.543 4.543 0 0 0-1.245-.945" class="k"/>
  <path d="M51.356 22.475a76.439 76.439 0 0 1 13.586.124" class="k"/>
  <path d="M60.936 31.355a76.439 76.439 0 0 1-13.586-.124" class="k"/>
  <path d="M50.879 25.595v2.946h4.3l-.434-2.946z" class="c"/>
  <path d="M60.708 25.595v2.946h3.022l-.3-2.946z" class="c"/>
  <path fill="#ff6a6b" d="M67.639 22.794l.21.552"/>
  <path d="M46.327 22.049l-3.091 3.676" class="k"/>
  <path d="M20.476 42.194l2.442 1.285-6.31 12.01-1.5-3.142-3.382.571 6.311-12.01z" class="m"/>
  <path d="M21.755 44.19l-3.033.556L24.85 57.37l1.712-2.968 3.512.53-5.806-11.967z" class="m"/>
  <g class="n">
    <path d="M24.84 48.137c-.475.192-1.01.21-1.505.049l-.052-.017-.047-.028a.802.802 0 0 0-.74-.056 1.093 1.093 0 0 0-.295.18c-.186.189-.405.335-.649.433a1.834 1.834 0 0 1-2.067-.48c-.267-.217-.674-.292-1.08-.2l-.06.027a1.834 1.834 0 0 1-2.437-1.147 1.106 1.106 0 0 0-.924-.599 2.067 2.067 0 0 1-1.355-.63 1.85 1.85 0 0 1-.523-1.372c-.053-.412-.297-.778-.63-.94-.525-.243-.927-.674-1.103-1.184a1.737 1.737 0 0 1 .083-1.352c.144-.368.07-.773-.199-1.092-.357-.353-.55-.867-.529-1.414.02-.524.231-1.033.58-1.397l.016-.016.017-.015c.284-.248.35-.623.18-1.03l-.005-.013-.005-.015c-.335-.968.125-2.01 1.093-2.479l.045-.021.049-.013a.98.98 0 0 0 .123-.04c.113-.045.451-.182.505-.831-.025-.758.453-1.464 1.198-1.765a1.94 1.94 0 0 1 .856-.138.739.739 0 0 0 .316-.06 1.04 1.04 0 0 0 .563-.539c.175-.469.54-.835 1.028-1.033.459-.185.981-.199 1.472-.04l.052.018.047.028a.8.8 0 0 0 .741.055c.104-.042.203-.102.295-.18.187-.189.405-.335.649-.434a1.833 1.833 0 0 1 2.064.48c.257.205.74.299 1.068.206l.075-.032a1.833 1.833 0 0 1 1.479.046c.456.22.793.61.953 1.1.197.36.525.572.927.6a2.124 2.124 0 0 1 1.976 1.995l.002.031-.002.031c-.027.379.207.716.61.882l.019.008.019.01c.475.245.84.673 1 1.175.145.455.111.932-.095 1.346-.143.368-.07.774.2 1.092.357.354.549.867.528 1.414a2.155 2.155 0 0 1-.58 1.398l-.016.016-.017.014c-.264.23-.354.685-.197.993l.016.031.012.033c.361 1.042-.1 2.066-1.12 2.49l-.02.008-.02.006a.777.777 0 0 0-.562.842l.003.036-.002.036a1.991 1.991 0 0 1-1.233 1.729 2.044 2.044 0 0 1-.916.14.696.696 0 0 0-.3.055c-.183.074-.4.24-.458.485l-.014.058-.027.053a2.076 2.076 0 0 1-1.074.973z" class="s"/>
    <path d="M24.653 47.673c.349-.14.643-.397.817-.737.095-.398.41-.691.757-.831a1.19 1.19 0 0 1 .522-.09c.253.017.487-.022.693-.106a1.5 1.5 0 0 0 .922-1.3 1.276 1.276 0 0 1 .908-1.355c.834-.346 1.091-1.138.84-1.864-.27-.524-.119-1.222.313-1.598.546-.568.616-1.577.048-2.122-.376-.432-.533-1.05-.291-1.641.353-.683.006-1.518-.678-1.87-.593-.245-.96-.775-.918-1.38a1.63 1.63 0 0 0-1.512-1.523 1.616 1.616 0 0 1-1.355-.906 1.33 1.33 0 0 0-1.865-.839c-.516.167-1.214.017-1.596-.314a1.335 1.335 0 0 0-1.528-.376c-.181.073-.35.186-.494.336a1.618 1.618 0 0 1-.45.278 1.303 1.303 0 0 1-1.182-.089 1.655 1.655 0 0 0-1.13.028c-.345.14-.622.402-.75.752-.16.39-.49.678-.84.82-.181.073-.367.107-.539.095a1.428 1.428 0 0 0-.634.102c-.525.212-.916.72-.884 1.31-.044.63-.318 1.084-.818 1.286-.06.024-.122.045-.187.062-.732.354-1.09 1.137-.839 1.865.26.626.118 1.222-.314 1.598-.545.57-.616 1.577-.047 2.123.375.43.533 1.048.29 1.64-.352.684-.006 1.518.778 1.877.489.236.856.767.918 1.379-.057.806.607 1.46 1.411 1.517a1.606 1.606 0 0 1 1.353.906 1.334 1.334 0 0 0 1.867.839c.617-.16 1.215-.017 1.595.314a1.337 1.337 0 0 0 1.531.376c.181-.074.35-.186.494-.336.134-.116.286-.212.45-.278.361-.146.78-.148 1.181.09.399.129.81.105 1.163-.038m.375.928a2.704 2.704 0 0 1-1.848.06l-.104-.034-.094-.055a.309.309 0 0 0-.3-.024.593.593 0 0 0-.144.087c-.23.229-.499.406-.798.527a2.326 2.326 0 0 1-2.593-.573c-.122-.085-.337-.14-.59-.091a2.339 2.339 0 0 1-1.913-.05 2.326 2.326 0 0 1-1.195-1.346.603.603 0 0 0-.5-.304 2.566 2.566 0 0 1-1.682-.784 2.345 2.345 0 0 1-.662-1.688c-.045-.26-.204-.448-.344-.519-.645-.3-1.14-.835-1.36-1.47a2.232 2.232 0 0 1 .095-1.714c.091-.254-.033-.461-.11-.558-.444-.45-.683-1.092-.658-1.768a2.662 2.662 0 0 1 .72-1.725l.03-.032.034-.03c.117-.101.133-.256.048-.46l-.012-.028-.01-.03c-.419-1.21.148-2.511 1.348-3.092l.09-.043.098-.025a.479.479 0 0 0 .06-.02c.045-.018.16-.064.191-.384-.017-.954.582-1.836 1.512-2.212a2.442 2.442 0 0 1 1.078-.173.297.297 0 0 0 .094-.024.55.55 0 0 0 .287-.264 2.28 2.28 0 0 1 1.304-1.308 2.654 2.654 0 0 1 1.814-.052l.104.034.095.056c.102.06.188.067.299.023.049-.02.099-.05.146-.087.23-.23.498-.406.798-.527a2.325 2.325 0 0 1 2.586.569.906.906 0 0 0 .568.106l.053-.022a2.326 2.326 0 0 1 3.077 1.403.612.612 0 0 0 .504.308 2.625 2.625 0 0 1 2.44 2.468l.004.062-.005.061c-.016.229.206.345.302.385l.039.016.037.02c.593.304 1.048.84 1.248 1.467a2.28 2.28 0 0 1-.111 1.696c-.09.255.034.462.11.558.445.451.683 1.092.658 1.77a2.66 2.66 0 0 1-.72 1.724l-.03.032-.034.029c-.094.082-.135.281-.08.388l.031.062.023.066c.445 1.284-.144 2.594-1.4 3.116l-.04.016-.04.013a.399.399 0 0 0-.027.01c-.205.082-.193.249-.187.32l.005.07-.005.072c-.069.973-.66 1.8-1.545 2.158a2.54 2.54 0 0 1-1.137.175.245.245 0 0 0-.079.02c-.087.035-.15.098-.159.138l-.028.116-.054.106c-.28.545-.752.974-1.332 1.209z" class="t"/>
  </g>
  <path fill="#fff" fill-rule="evenodd" stroke="#fff" d="M27.867 38.702a6.873 6.873 0 1 0-6.95 6.701 6.876 6.876 0 0 0 6.95-6.701z"/>
  <g class="n">
    <path d="M23.07 43.675c-.696.281-1.43.42-2.184.415a5.692 5.692 0 0 1-3.883-1.738 5.574 5.574 0 0 1-1.57-3.938c.09-2.24 1.474-4.222 3.528-5.052a5.567 5.567 0 0 1 2.143-.404 5.7 5.7 0 0 1 3.887 1.738 5.57 5.57 0 0 1 1.572 3.944c-.02 2.21-1.392 4.186-3.493 5.035z" class="s"/>
    <path d="M22.882 43.212c1.913-.773 3.162-2.57 3.18-4.577a5.073 5.073 0 0 0-1.43-3.591 5.202 5.202 0 0 0-3.54-1.586 5.069 5.069 0 0 0-1.944.368c-1.87.755-3.13 2.56-3.216 4.6a5.076 5.076 0 0 0 1.43 3.578 5.194 5.194 0 0 0 3.536 1.586 5.181 5.181 0 0 0 1.984-.378m.375.927a6.2 6.2 0 0 1-2.383.45c-3.33-.132-5.974-2.847-5.942-6.187a6.18 6.18 0 0 1 3.841-5.503 6.083 6.083 0 0 1 2.343-.441c3.333.132 5.979 2.848 5.947 6.187-.024 2.5-1.61 4.606-3.806 5.494z" class="t"/>
  </g>
  <g>
    <g transform="rotate(-10 39.77 -29.493)">
      <ellipse cx="19.958" cy="1.526" fill="#afafaf" opacity=".2" rx="19.958" ry="1.526" transform="rotate(-12.574 80.466 3.651)"/>
      <path d="M1.397 10.491s21.779-3.98 24.036-4.185a9.651 9.651 0 0 1 5.129.987c.9.482 5.1 2.768 5.484 2.847s1.651-1.024 1.592-1.831-8.583-3.43-10.466-3.447S.872 8.42.872 8.42z" class="b"/>
      <path d="M36.326 2.699S14.921 8.352 12.791 9.126a9.65 9.65 0 0 0-4.224 3.073c-.606.818-3.442 4.675-3.754 4.908a2.3 2.3 0 0 1-2.219-.981c-.29-.755 6.312-6.752 8.009-7.568S35.919.604 35.919.604z" class="b"/>
      <g opacity=".48">
        <path d="M8.834 6.243C5.391 7.094 4.076 7.794 3.455 8.3s-.461 1.409-.128 2.723a21.983 21.983 0 0 0 1.918 4.758 3.227 3.227 0 0 0 3.135 1.056 20.272 20.272 0 0 0 5.251-1.171 3.879 3.879 0 0 0 2.617-2.911c.573-1.639.97-5.2-.071-6.72-.726-1.064-5.795-.176-7.343.208z" class="r"/>
        <path d="M27.714 2.032c3.479-.692 4.966-.618 5.744-.424s1.016 1.079 1.272 2.411a21.915 21.915 0 0 1 .285 5.122 3.227 3.227 0 0 1-2.388 2.289 20.266 20.266 0 0 1-5.25 1.171 3.88 3.88 0 0 1-3.606-1.523c-1.216-1.24-3.088-4.295-2.793-6.114.206-1.272 5.17-2.621 6.736-2.932z" class="r"/>
      </g>
      <path d="M35.083.059c-1 .1-6.366.93-9.01 1.52s-4.38 1.282-7.846 2.166c-3.513.673-5.378.783-8.023 1.373s-7.856 2.12-8.8 2.453-1.533.546-1.377 1.246.844 2.588.844 2.588c1.6.379 1.96 2.747 2.791 4.277s1.346 2.19 3.145 2.565 5.117-.488 6.539-.887a4.7 4.7 0 0 0 3.283-2.488 23.87 23.87 0 0 0 1.383-5.33c.164-1.6.292-1.984 1.031-2.149s1.02.13 1.847 1.507a23.894 23.894 0 0 0 3.517 4.237 4.7 4.7 0 0 0 4.03.857c1.456-.243 4.827-.873 6.3-1.976s1.654-1.921 1.756-3.658-.573-4.036.71-5.057c0 0-.18-2-.336-2.7s-.785-.644-1.784-.544zM16.372 13.133a3.878 3.878 0 0 1-2.617 2.911 20.242 20.242 0 0 1-5.25 1.172A3.229 3.229 0 0 1 5.37 16.16a21.942 21.942 0 0 1-1.919-4.758c-.334-1.314-.495-2.217.128-2.723s1.937-1.2 5.38-2.057c1.55-.383 6.616-1.272 7.343-.209 1.04 1.521.644 5.082.07 6.72zm18.483-8.736a21.994 21.994 0 0 1 .285 5.122 3.227 3.227 0 0 1-2.388 2.288 20.245 20.245 0 0 1-5.251 1.171 3.877 3.877 0 0 1-3.605-1.523c-1.216-1.24-3.089-4.295-2.793-6.114.207-1.271 5.171-2.62 6.737-2.932 3.478-.691 4.965-.617 5.743-.423s1.017 1.08 1.272 2.411z" class="b"/>
      <path d="M18.838 6.797a1.229 1.229 0 0 0-1.093 1.28 1.555 1.555 0 0 1 2.627-.586 1.229 1.229 0 0 0-1.534-.694z" class="i"/>
    </g>
  </g>
</svg>
